G75*
G70*
%OFA0B0*%
%FSLAX24Y24*%
%IPPOS*%
%LPD*%
%AMOC8*
5,1,8,0,0,1.08239X$1,22.5*
%
%ADD10C,0.0080*%
%ADD11C,0.0220*%
%ADD12C,0.0240*%
%ADD13C,0.0050*%
%ADD14R,0.0200X0.0450*%
%ADD15R,0.0200X0.0100*%
%ADD16C,0.0070*%
%ADD17R,0.0200X0.0300*%
%ADD18R,0.0200X0.3100*%
%ADD19R,0.0200X0.3300*%
%ADD20R,0.0200X0.3500*%
%ADD21R,0.0200X0.3050*%
D10*
X004631Y002294D02*
X004841Y002294D01*
X004911Y002364D01*
X004911Y002504D01*
X004841Y002575D01*
X004631Y002575D01*
X004631Y002715D02*
X004631Y002294D01*
X005091Y002434D02*
X005371Y002434D01*
X005371Y002364D02*
X005371Y002504D01*
X005301Y002575D01*
X005161Y002575D01*
X005091Y002504D01*
X005091Y002434D01*
X005161Y002294D02*
X005301Y002294D01*
X005371Y002364D01*
X005551Y002294D02*
X005692Y002434D01*
X005622Y002434D02*
X005832Y002434D01*
X005832Y002294D02*
X005832Y002715D01*
X005622Y002715D01*
X005551Y002645D01*
X005551Y002504D01*
X005622Y002434D01*
X005472Y002804D02*
X004972Y002804D01*
X004722Y003054D01*
X004722Y003554D01*
X004972Y003804D01*
X005472Y003804D01*
X005722Y003554D01*
X005722Y003054D01*
X005472Y002804D01*
X006237Y002504D02*
X006237Y002294D01*
X006237Y002504D02*
X006307Y002575D01*
X006517Y002575D01*
X006517Y002294D01*
X006697Y002434D02*
X006977Y002434D01*
X006977Y002364D02*
X006977Y002504D01*
X006907Y002575D01*
X006767Y002575D01*
X006697Y002504D01*
X006697Y002434D01*
X006767Y002294D02*
X006907Y002294D01*
X006977Y002364D01*
X007158Y002434D02*
X007438Y002434D01*
X007438Y002364D02*
X007438Y002504D01*
X007368Y002575D01*
X007228Y002575D01*
X007158Y002504D01*
X007158Y002434D01*
X007228Y002294D02*
X007368Y002294D01*
X007438Y002364D01*
X007611Y002575D02*
X007681Y002575D01*
X007821Y002434D01*
X007821Y002294D02*
X007821Y002575D01*
X008001Y002645D02*
X008072Y002715D01*
X008212Y002715D01*
X008282Y002645D01*
X008282Y002364D01*
X008212Y002294D01*
X008072Y002294D01*
X008001Y002364D01*
X008001Y002504D01*
X008142Y002504D01*
X007722Y003054D02*
X007472Y002804D01*
X006972Y002804D01*
X006722Y003054D01*
X006722Y003554D01*
X006972Y003804D01*
X007472Y003804D01*
X007722Y003554D01*
X007722Y003054D01*
X009222Y003304D02*
X009472Y003054D01*
X009972Y003054D01*
X010222Y003304D01*
X010472Y003054D01*
X010972Y003054D01*
X011222Y003304D01*
X011472Y003054D01*
X011972Y003054D01*
X012222Y003304D01*
X012472Y003054D01*
X012972Y003054D01*
X013222Y003304D01*
X013472Y003054D01*
X013972Y003054D01*
X014222Y003304D01*
X014472Y003054D01*
X014972Y003054D01*
X015222Y003304D01*
X015222Y003804D01*
X014972Y004054D01*
X014472Y004054D01*
X014222Y003804D01*
X013972Y004054D01*
X013472Y004054D01*
X013222Y003804D01*
X012972Y004054D01*
X012472Y004054D01*
X012222Y003804D01*
X011972Y004054D01*
X011472Y004054D01*
X011222Y003804D01*
X010972Y004054D01*
X010472Y004054D01*
X010222Y003804D01*
X009972Y004054D01*
X009472Y004054D01*
X009222Y003804D01*
X009222Y003304D01*
X009472Y002054D02*
X009222Y001804D01*
X009222Y001304D01*
X009472Y001054D01*
X009972Y001054D01*
X010222Y001304D01*
X010472Y001054D01*
X010972Y001054D01*
X011222Y001304D01*
X011472Y001054D01*
X011972Y001054D01*
X012222Y001304D01*
X012472Y001054D01*
X012972Y001054D01*
X013222Y001304D01*
X013472Y001054D01*
X013972Y001054D01*
X014222Y001304D01*
X014472Y001054D01*
X014972Y001054D01*
X015222Y001304D01*
X015222Y001804D01*
X014972Y002054D01*
X014472Y002054D01*
X014222Y001804D01*
X013972Y002054D01*
X013472Y002054D01*
X013222Y001804D01*
X012972Y002054D01*
X012472Y002054D01*
X012222Y001804D01*
X011972Y002054D01*
X011472Y002054D01*
X011222Y001804D01*
X010972Y002054D01*
X010472Y002054D01*
X010222Y001804D01*
X009972Y002054D01*
X009472Y002054D01*
X016222Y001804D02*
X016222Y001304D01*
X016472Y001054D01*
X016972Y001054D01*
X017222Y001304D01*
X017472Y001054D01*
X017972Y001054D01*
X018222Y001304D01*
X018472Y001054D01*
X018972Y001054D01*
X019222Y001304D01*
X019472Y001054D01*
X019972Y001054D01*
X020222Y001304D01*
X020472Y001054D01*
X020972Y001054D01*
X021222Y001304D01*
X021472Y001054D01*
X021972Y001054D01*
X022222Y001304D01*
X022222Y001804D01*
X021972Y002054D01*
X021472Y002054D01*
X021222Y001804D01*
X020972Y002054D01*
X020472Y002054D01*
X020222Y001804D01*
X019972Y002054D01*
X019472Y002054D01*
X019222Y001804D01*
X018972Y002054D01*
X018472Y002054D01*
X018222Y001804D01*
X017972Y002054D01*
X017472Y002054D01*
X017222Y001804D01*
X016972Y002054D01*
X016472Y002054D01*
X016222Y001804D01*
X016472Y003054D02*
X016972Y003054D01*
X017222Y003304D01*
X017472Y003054D01*
X017972Y003054D01*
X018222Y003304D01*
X018472Y003054D01*
X018972Y003054D01*
X019222Y003304D01*
X019472Y003054D01*
X019972Y003054D01*
X020222Y003304D01*
X020472Y003054D01*
X020972Y003054D01*
X021222Y003304D01*
X021472Y003054D01*
X021972Y003054D01*
X022222Y003304D01*
X022222Y003804D01*
X021972Y004054D01*
X021472Y004054D01*
X021222Y003804D01*
X020972Y004054D01*
X020472Y004054D01*
X020222Y003804D01*
X019972Y004054D01*
X019472Y004054D01*
X019222Y003804D01*
X018972Y004054D01*
X018472Y004054D01*
X018222Y003804D01*
X017972Y004054D01*
X017472Y004054D01*
X017222Y003804D01*
X016972Y004054D01*
X016472Y004054D01*
X016222Y003804D01*
X016222Y003304D01*
X016472Y003054D01*
X022992Y004544D02*
X022992Y004684D01*
X023062Y004755D01*
X023202Y004755D01*
X023202Y004614D01*
X023342Y004474D02*
X023062Y004474D01*
X022992Y004544D01*
X023342Y004474D02*
X023412Y004544D01*
X023412Y004684D01*
X023342Y004755D01*
X023412Y004935D02*
X022992Y005215D01*
X023412Y005215D01*
X023412Y005395D02*
X023412Y005605D01*
X023342Y005675D01*
X023062Y005675D01*
X022992Y005605D01*
X022992Y005395D01*
X023412Y005395D01*
X023412Y004935D02*
X022992Y004935D01*
X022472Y013554D02*
X021472Y013554D01*
X021722Y013804D01*
X021972Y013554D01*
X021722Y013804D02*
X021722Y014304D01*
X021972Y014554D01*
X003972Y014554D01*
X004472Y014554D01*
X004722Y014304D01*
X004722Y013804D01*
X004472Y013554D01*
X003972Y013554D01*
X003722Y013804D01*
X003722Y014304D01*
X003472Y014554D01*
X002972Y014554D01*
X002722Y014304D01*
X002722Y013804D01*
X002472Y013554D01*
X001972Y013554D01*
X001722Y013804D01*
X001722Y014304D01*
X001472Y014554D01*
X000972Y014554D01*
X000722Y014304D01*
X000722Y013804D01*
X000972Y013554D01*
X001222Y013554D01*
X001472Y013554D01*
X001722Y013804D01*
X001722Y014304D02*
X001972Y014554D01*
X002472Y014554D01*
X002722Y014304D01*
X002722Y013804D02*
X002972Y013554D01*
X003472Y013554D01*
X003722Y013804D01*
X003722Y014304D02*
X003972Y014554D01*
X001222Y014554D01*
X001222Y013554D02*
X020972Y013554D01*
X021472Y013554D01*
X021222Y013554D02*
X020972Y013554D01*
X020722Y013804D01*
X020722Y014304D01*
X020472Y014554D01*
X019972Y014554D01*
X019722Y014304D01*
X019722Y013804D01*
X019472Y013554D01*
X018972Y013554D01*
X018722Y013804D01*
X018722Y014304D01*
X018472Y014554D01*
X017972Y014554D01*
X017722Y014304D01*
X017722Y013804D01*
X017472Y013554D01*
X016972Y013554D01*
X016722Y013804D01*
X016722Y014304D01*
X016472Y014554D01*
X015972Y014554D01*
X015722Y014304D01*
X015722Y013804D01*
X015472Y013554D01*
X014972Y013554D01*
X014722Y013804D01*
X014722Y014304D01*
X014472Y014554D01*
X013972Y014554D01*
X013722Y014304D01*
X013722Y013804D01*
X013472Y013554D01*
X012972Y013554D01*
X012722Y013804D01*
X012722Y014304D01*
X012472Y014554D01*
X011972Y014554D01*
X011722Y014304D01*
X011722Y013804D01*
X011472Y013554D01*
X010972Y013554D01*
X010722Y013804D01*
X010722Y014304D01*
X010472Y014554D01*
X009972Y014554D01*
X009722Y014304D01*
X009722Y013804D01*
X009472Y013554D01*
X008972Y013554D01*
X008722Y013804D01*
X008722Y014304D01*
X008472Y014554D01*
X007972Y014554D01*
X007722Y014304D01*
X007722Y013804D01*
X007472Y013554D01*
X006972Y013554D01*
X006722Y013804D01*
X006722Y014304D01*
X006472Y014554D01*
X005972Y014554D01*
X005722Y014304D01*
X005722Y013804D01*
X005472Y013554D01*
X004972Y013554D01*
X004722Y013804D01*
X004722Y014304D02*
X004972Y014554D01*
X005472Y014554D01*
X005722Y014304D01*
X005722Y013804D02*
X005972Y013554D01*
X006472Y013554D01*
X006722Y013804D01*
X006722Y014304D02*
X006972Y014554D01*
X007472Y014554D01*
X007722Y014304D01*
X007722Y013804D02*
X007972Y013554D01*
X008472Y013554D01*
X008722Y013804D01*
X008722Y014304D02*
X008972Y014554D01*
X009472Y014554D01*
X009722Y014304D01*
X009722Y013804D02*
X009972Y013554D01*
X010472Y013554D01*
X010722Y013804D01*
X010722Y014304D02*
X010972Y014554D01*
X011472Y014554D01*
X011722Y014304D01*
X011722Y013804D02*
X011972Y013554D01*
X012472Y013554D01*
X012722Y013804D01*
X012722Y014304D02*
X012972Y014554D01*
X013472Y014554D01*
X013722Y014304D01*
X013722Y013804D02*
X013972Y013554D01*
X014472Y013554D01*
X014722Y013804D01*
X014722Y014304D02*
X014972Y014554D01*
X015472Y014554D01*
X015722Y014304D01*
X015722Y013804D02*
X015972Y013554D01*
X016472Y013554D01*
X016722Y013804D01*
X016722Y014304D02*
X016972Y014554D01*
X017472Y014554D01*
X017722Y014304D01*
X017722Y013804D02*
X017972Y013554D01*
X018472Y013554D01*
X018722Y013804D01*
X018722Y014304D02*
X018972Y014554D01*
X019472Y014554D01*
X019722Y014304D01*
X019722Y013804D02*
X019972Y013554D01*
X020472Y013554D01*
X020722Y013804D01*
X020722Y014304D02*
X020972Y014554D01*
X021472Y014554D01*
X021722Y014304D01*
X021972Y014554D02*
X022472Y014554D01*
X022722Y014304D01*
X022722Y013804D01*
X022472Y013554D01*
X022902Y013784D02*
X022972Y013714D01*
X022902Y013784D02*
X022902Y013924D01*
X022972Y013995D01*
X023112Y013995D01*
X023182Y013924D01*
X023182Y013854D01*
X023112Y013714D01*
X023322Y013714D01*
X023322Y013995D01*
X023322Y014175D02*
X023042Y014175D01*
X022902Y014315D01*
X023042Y014455D01*
X023322Y014455D01*
X022222Y015304D02*
X022222Y015804D01*
X021972Y016054D01*
X021472Y016054D01*
X021222Y015804D01*
X020972Y016054D01*
X020472Y016054D01*
X020222Y015804D01*
X019972Y016054D01*
X019472Y016054D01*
X019222Y015804D01*
X018972Y016054D01*
X018472Y016054D01*
X018222Y015804D01*
X017972Y016054D01*
X017472Y016054D01*
X017222Y015804D01*
X016972Y016054D01*
X016472Y016054D01*
X016222Y015804D01*
X015972Y016054D02*
X015472Y016054D01*
X015222Y015804D01*
X014972Y016054D01*
X014472Y016054D01*
X014222Y015804D01*
X014222Y015304D01*
X014472Y015054D01*
X014972Y015054D01*
X015222Y015304D01*
X015472Y015054D01*
X015972Y015054D01*
X016222Y015304D01*
X016472Y015054D01*
X016972Y015054D01*
X017222Y015304D01*
X017472Y015054D01*
X017972Y015054D01*
X018222Y015304D01*
X018472Y015054D01*
X018972Y015054D01*
X019222Y015304D01*
X019472Y015054D01*
X019972Y015054D01*
X020222Y015304D01*
X020472Y015054D01*
X020972Y015054D01*
X021222Y015304D01*
X021472Y015054D01*
X021972Y015054D01*
X022222Y015304D01*
X021972Y014554D02*
X004472Y014554D01*
X005622Y015304D02*
X005872Y015054D01*
X006372Y015054D01*
X006622Y015304D01*
X006872Y015054D01*
X007372Y015054D01*
X007622Y015304D01*
X007872Y015054D01*
X008372Y015054D01*
X008622Y015304D01*
X008872Y015054D01*
X009372Y015054D01*
X009622Y015304D01*
X009872Y015054D01*
X010372Y015054D01*
X010622Y015304D01*
X010872Y015054D01*
X011372Y015054D01*
X011622Y015304D01*
X011872Y015054D01*
X012372Y015054D01*
X012622Y015304D01*
X012872Y015054D01*
X013372Y015054D01*
X013622Y015304D01*
X013622Y015804D01*
X013372Y016054D01*
X012872Y016054D01*
X012622Y015804D01*
X012372Y016054D01*
X011872Y016054D01*
X011622Y015804D01*
X011372Y016054D01*
X010872Y016054D01*
X010622Y015804D01*
X010372Y016054D01*
X009872Y016054D01*
X009622Y015804D01*
X009372Y016054D01*
X008872Y016054D01*
X008622Y015804D01*
X008372Y016054D01*
X007872Y016054D01*
X007622Y015804D01*
X007372Y016054D01*
X006872Y016054D01*
X006622Y015804D01*
X006372Y016054D01*
X005872Y016054D01*
X005622Y015804D01*
X005622Y015304D01*
X005872Y020054D02*
X006372Y020054D01*
X006622Y020304D01*
X006872Y020054D01*
X007372Y020054D01*
X007622Y020304D01*
X007872Y020054D01*
X008372Y020054D01*
X008622Y020304D01*
X008872Y020054D01*
X009372Y020054D01*
X009622Y020304D01*
X009872Y020054D01*
X010372Y020054D01*
X010622Y020304D01*
X010872Y020054D01*
X011372Y020054D01*
X011622Y020304D01*
X011872Y020054D01*
X012372Y020054D01*
X012622Y020304D01*
X012872Y020054D01*
X013372Y020054D01*
X013622Y020304D01*
X013622Y020804D01*
X013372Y021054D01*
X012872Y021054D01*
X012622Y020804D01*
X012372Y021054D01*
X011872Y021054D01*
X011622Y020804D01*
X011372Y021054D01*
X010872Y021054D01*
X010622Y020804D01*
X010372Y021054D01*
X009872Y021054D01*
X009622Y020804D01*
X009372Y021054D01*
X008872Y021054D01*
X008622Y020804D01*
X008372Y021054D01*
X007872Y021054D01*
X007622Y020804D01*
X007372Y021054D01*
X006872Y021054D01*
X006622Y020804D01*
X006372Y021054D01*
X005872Y021054D01*
X005622Y020804D01*
X005622Y020304D01*
X005872Y020054D01*
X014222Y020304D02*
X014472Y020054D01*
X014972Y020054D01*
X015222Y020304D01*
X015472Y020054D01*
X015972Y020054D01*
X016222Y020304D01*
X016472Y020054D01*
X016972Y020054D01*
X017222Y020304D01*
X017472Y020054D01*
X017972Y020054D01*
X018222Y020304D01*
X018472Y020054D01*
X018972Y020054D01*
X019222Y020304D01*
X019472Y020054D01*
X019972Y020054D01*
X020222Y020304D01*
X020472Y020054D01*
X020972Y020054D01*
X021222Y020304D01*
X021472Y020054D01*
X021972Y020054D01*
X022222Y020304D01*
X022222Y020804D01*
X021972Y021054D01*
X021472Y021054D01*
X021222Y020804D01*
X020972Y021054D01*
X020472Y021054D01*
X020222Y020804D01*
X019972Y021054D01*
X019472Y021054D01*
X019222Y020804D01*
X018972Y021054D01*
X018472Y021054D01*
X018222Y020804D01*
X017972Y021054D01*
X017472Y021054D01*
X017222Y020804D01*
X016972Y021054D01*
X016472Y021054D01*
X016222Y020804D01*
X015972Y021054D01*
X015472Y021054D01*
X015222Y020804D01*
X014972Y021054D01*
X014472Y021054D01*
X014222Y020804D01*
X014222Y020304D01*
X021222Y014554D02*
X021972Y014554D01*
D11*
X022722Y005484D02*
X000722Y005484D01*
X000722Y004624D02*
X022722Y004624D01*
D12*
X022722Y004654D02*
X022722Y005454D01*
X021722Y005454D02*
X021722Y004654D01*
X020722Y004654D02*
X020722Y005454D01*
X019722Y005454D02*
X019722Y004654D01*
X018722Y004654D02*
X018722Y005454D01*
X017722Y005454D02*
X017722Y004654D01*
X016722Y004654D02*
X016722Y005454D01*
X015722Y005454D02*
X015722Y004654D01*
X014722Y004654D02*
X014722Y005454D01*
X013722Y005454D02*
X013722Y004654D01*
X012722Y004654D02*
X012722Y005454D01*
X011722Y005454D02*
X011722Y004654D01*
X010722Y004654D02*
X010722Y005454D01*
X009722Y005454D02*
X009722Y004654D01*
X008722Y004654D02*
X008722Y005454D01*
X007722Y005454D02*
X007722Y004654D01*
X006722Y004654D02*
X006722Y005454D01*
X005722Y005454D02*
X005722Y004654D01*
X004722Y004654D02*
X004722Y005454D01*
X003722Y005454D02*
X003722Y004654D01*
X002722Y004654D02*
X002722Y005454D01*
X001722Y005454D02*
X001722Y004654D01*
X000722Y004654D02*
X000722Y005454D01*
D13*
X001702Y002224D02*
X003302Y002224D01*
X003352Y002274D01*
X001702Y002274D01*
X001702Y002224D01*
X001702Y002274D02*
X001702Y002324D01*
X001752Y002474D01*
X001702Y002474D01*
X001652Y002474D01*
X001602Y002474D01*
X001802Y003324D01*
X001802Y003274D01*
X001702Y003274D01*
X001702Y003224D01*
X001802Y003224D01*
X001802Y003174D01*
X001702Y003174D01*
X001702Y003124D01*
X001652Y003124D01*
X001602Y003074D01*
X001552Y003024D01*
X001752Y003024D01*
X001752Y002974D01*
X001552Y002974D01*
X001552Y002924D01*
X001752Y002924D01*
X001752Y002874D01*
X001552Y002874D01*
X001552Y002824D01*
X001702Y002824D01*
X001702Y002774D01*
X001552Y002774D01*
X001552Y002724D01*
X001652Y002724D01*
X001652Y002674D01*
X001552Y002674D01*
X001552Y002624D01*
X001652Y002624D01*
X001652Y002574D01*
X001552Y002574D01*
X001552Y002524D01*
X001652Y002524D01*
X001652Y002474D01*
X001902Y003324D01*
X001852Y003324D01*
X001602Y002474D01*
X001552Y002474D01*
X001602Y002424D01*
X001702Y002424D01*
X001702Y002374D01*
X001702Y002524D01*
X001702Y002474D02*
X001952Y003324D01*
X001902Y003324D01*
X001952Y003324D02*
X002002Y003324D01*
X001702Y002324D01*
X002052Y003324D01*
X002002Y003324D01*
X002052Y003324D02*
X002352Y003324D01*
X002702Y002324D01*
X002402Y003324D01*
X002452Y003324D01*
X002602Y003074D01*
X002502Y003324D01*
X002602Y003174D01*
X002602Y003224D01*
X002602Y003324D01*
X002652Y003324D01*
X002652Y003274D01*
X002602Y003224D01*
X002652Y003224D01*
X002752Y003324D01*
X002702Y003324D01*
X002652Y003274D01*
X002652Y003224D02*
X002602Y003324D01*
X002552Y003324D01*
X002652Y003224D01*
X002602Y003174D01*
X002552Y003324D01*
X002502Y003324D01*
X002452Y003324D01*
X002602Y002974D01*
X002602Y002874D02*
X002852Y002324D01*
X002652Y002824D01*
X002902Y002324D01*
X002702Y002774D01*
X002902Y002424D01*
X002752Y002724D01*
X002902Y002524D01*
X002802Y002724D01*
X002902Y002624D01*
X002902Y002724D01*
X002852Y002724D01*
X002902Y002624D01*
X002902Y002524D01*
X002902Y002424D01*
X002902Y002324D01*
X002952Y002324D01*
X002952Y002724D01*
X002902Y002724D01*
X002952Y002724D02*
X003002Y002724D01*
X003002Y002324D01*
X003302Y002324D01*
X003302Y003374D01*
X001702Y003374D01*
X001702Y003324D01*
X001802Y003324D01*
X001852Y003324D01*
X001752Y003424D02*
X001702Y003374D01*
X001702Y003324D02*
X001702Y003274D01*
X001702Y003224D02*
X001702Y003174D01*
X001652Y003124D01*
X001702Y003124D02*
X001752Y003124D01*
X001752Y003074D01*
X001602Y003074D01*
X001552Y003024D02*
X001552Y002974D01*
X001552Y002924D02*
X001552Y002874D01*
X001552Y002824D02*
X001552Y002774D01*
X001552Y002724D02*
X001552Y002674D01*
X001552Y002624D02*
X001552Y002574D01*
X001552Y002524D02*
X001552Y002474D01*
X001602Y002424D02*
X001652Y002374D01*
X001702Y002374D01*
X001702Y002324D02*
X002002Y002324D01*
X002102Y002624D01*
X002202Y002324D01*
X002152Y002324D01*
X002102Y002574D01*
X002102Y002524D01*
X002052Y002324D01*
X002102Y002324D01*
X002102Y002524D01*
X002102Y002624D02*
X002152Y002624D01*
X002252Y002324D01*
X002302Y002324D01*
X002202Y002624D01*
X002252Y002624D01*
X002352Y002324D01*
X002402Y002324D01*
X002302Y002624D01*
X002252Y002624D01*
X002202Y002624D02*
X002152Y002624D01*
X002152Y002849D02*
X002202Y003024D01*
X002252Y002849D01*
X002152Y002849D01*
X002202Y002874D02*
X002202Y002974D01*
X002352Y003324D02*
X002402Y003324D01*
X002452Y003324D02*
X002752Y002324D01*
X002802Y002324D01*
X002602Y002874D01*
X002902Y002724D02*
X002868Y002726D01*
X002835Y002732D01*
X002803Y002741D01*
X002772Y002754D01*
X002742Y002770D01*
X002715Y002789D01*
X002690Y002812D01*
X002667Y002837D01*
X002648Y002864D01*
X002632Y002894D01*
X002619Y002925D01*
X002610Y002957D01*
X002604Y002990D01*
X002602Y003024D01*
X002604Y003058D01*
X002610Y003091D01*
X002619Y003123D01*
X002632Y003154D01*
X002648Y003184D01*
X002667Y003211D01*
X002690Y003236D01*
X002715Y003259D01*
X002742Y003278D01*
X002772Y003294D01*
X002803Y003307D01*
X002835Y003316D01*
X002868Y003322D01*
X002902Y003324D01*
X002752Y003324D01*
X002702Y003324D02*
X002652Y003324D01*
X002902Y003324D02*
X003352Y003324D01*
X003352Y002324D01*
X003402Y002324D01*
X003352Y002274D01*
X003352Y002324D02*
X003302Y002324D01*
X003402Y002324D02*
X003402Y003324D01*
X003352Y003324D01*
X003402Y003324D02*
X003352Y003374D01*
X003302Y003374D01*
X003352Y003374D02*
X003302Y003424D01*
X001752Y003424D01*
X001652Y002374D02*
X001702Y002324D01*
X002002Y002324D02*
X002052Y002324D01*
X002102Y002324D02*
X002152Y002324D01*
X002202Y002324D02*
X002252Y002324D01*
X002302Y002324D02*
X002352Y002324D01*
X002402Y002324D02*
X002702Y002324D01*
X002752Y002324D01*
X002802Y002324D02*
X002852Y002324D01*
X002902Y002324D01*
X002952Y002324D02*
X003002Y002324D01*
X003002Y002974D02*
X002952Y002974D01*
X002952Y003024D01*
X002952Y003074D02*
X002939Y003072D01*
X002927Y003067D01*
X002917Y003059D01*
X002909Y003049D01*
X002904Y003037D01*
X002902Y003024D01*
X002904Y003011D01*
X002909Y002999D01*
X002917Y002989D01*
X002927Y002981D01*
X002939Y002976D01*
X002952Y002974D01*
X003002Y002974D02*
X003002Y003024D01*
X002952Y003024D01*
X002952Y003074D01*
X003002Y003074D01*
X003002Y003024D01*
X005827Y001750D02*
X005827Y001479D01*
X005917Y001569D01*
X006007Y001479D01*
X006007Y001750D01*
X006122Y001704D02*
X006167Y001750D01*
X006257Y001750D01*
X006302Y001704D01*
X006302Y001524D01*
X006257Y001479D01*
X006167Y001479D01*
X006122Y001524D01*
X006122Y001704D01*
X006167Y001350D02*
X006122Y001304D01*
X006122Y001124D01*
X006167Y001079D01*
X006257Y001079D01*
X006302Y001124D01*
X006302Y001304D01*
X006257Y001350D01*
X006167Y001350D01*
X006007Y001350D02*
X005827Y001079D01*
X005827Y001350D01*
X006007Y001350D02*
X006007Y001079D01*
X006417Y001169D02*
X006597Y001169D01*
X006597Y001259D02*
X006417Y001259D01*
X006417Y001479D02*
X006597Y001479D01*
X006597Y001750D01*
X009327Y002500D02*
X009507Y002500D01*
X009417Y002500D02*
X009417Y002229D01*
X009622Y002274D02*
X009667Y002229D01*
X009757Y002229D01*
X009802Y002274D01*
X009757Y002364D02*
X009667Y002364D01*
X009622Y002319D01*
X009622Y002274D01*
X009757Y002364D02*
X009802Y002409D01*
X009802Y002454D01*
X009757Y002500D01*
X009667Y002500D01*
X009622Y002454D01*
X009917Y002454D02*
X009917Y002364D01*
X009962Y002319D01*
X010097Y002319D01*
X010097Y002229D02*
X010097Y002500D01*
X009962Y002500D01*
X009917Y002454D01*
X010007Y002319D02*
X009917Y002229D01*
X010327Y002624D02*
X010372Y002579D01*
X010462Y002579D01*
X010507Y002624D01*
X010622Y002669D02*
X010622Y002850D01*
X010507Y002804D02*
X010462Y002850D01*
X010372Y002850D01*
X010327Y002804D01*
X010327Y002759D01*
X010372Y002714D01*
X010327Y002669D01*
X010327Y002624D01*
X010372Y002714D02*
X010417Y002714D01*
X010622Y002669D02*
X010712Y002579D01*
X010802Y002669D01*
X010802Y002850D01*
X010917Y002804D02*
X010917Y002759D01*
X010962Y002714D01*
X010917Y002669D01*
X010917Y002624D01*
X010962Y002579D01*
X011052Y002579D01*
X011097Y002624D01*
X011007Y002714D02*
X010962Y002714D01*
X010917Y002804D02*
X010962Y002850D01*
X011052Y002850D01*
X011097Y002804D01*
X011472Y002500D02*
X011472Y002319D01*
X011562Y002229D01*
X011652Y002319D01*
X011652Y002500D01*
X011767Y002500D02*
X011947Y002500D01*
X011947Y002364D01*
X011857Y002409D01*
X011812Y002409D01*
X011767Y002364D01*
X011767Y002274D01*
X011812Y002229D01*
X011902Y002229D01*
X011947Y002274D01*
X012327Y002624D02*
X012327Y002804D01*
X012372Y002850D01*
X012507Y002850D01*
X012507Y002579D01*
X012372Y002579D01*
X012327Y002624D01*
X012622Y002579D02*
X012622Y002850D01*
X012802Y002850D02*
X012622Y002579D01*
X012802Y002579D02*
X012802Y002850D01*
X012917Y002804D02*
X012962Y002850D01*
X013052Y002850D01*
X013097Y002804D01*
X013097Y002624D01*
X013052Y002579D01*
X012962Y002579D01*
X012917Y002624D01*
X012917Y002714D01*
X013007Y002714D01*
X013327Y002454D02*
X013372Y002500D01*
X013507Y002500D01*
X013507Y002229D01*
X013372Y002229D01*
X013327Y002274D01*
X013327Y002454D01*
X013622Y002500D02*
X013622Y002229D01*
X013802Y002500D01*
X013802Y002229D01*
X013917Y002274D02*
X013917Y002364D01*
X014007Y002364D01*
X014097Y002454D02*
X014097Y002274D01*
X014052Y002229D01*
X013962Y002229D01*
X013917Y002274D01*
X013917Y002454D02*
X013962Y002500D01*
X014052Y002500D01*
X014097Y002454D01*
X014376Y002579D02*
X014376Y002850D01*
X014556Y002850D02*
X014376Y002579D01*
X014556Y002579D02*
X014556Y002850D01*
X014662Y002850D02*
X014752Y002850D01*
X014707Y002850D02*
X014707Y002579D01*
X014752Y002579D02*
X014662Y002579D01*
X014867Y002669D02*
X014867Y002850D01*
X015047Y002850D02*
X015047Y002669D01*
X014957Y002579D01*
X014867Y002669D01*
X010497Y016229D02*
X010362Y016229D01*
X010317Y016274D01*
X010317Y016454D01*
X010362Y016500D01*
X010497Y016500D01*
X010497Y016229D01*
X010202Y016229D02*
X010022Y016229D01*
X010112Y016229D02*
X010112Y016500D01*
X010202Y016409D01*
X009907Y016409D02*
X009817Y016500D01*
X009817Y016229D01*
X009907Y016229D02*
X009727Y016229D01*
X009497Y016579D02*
X009362Y016579D01*
X009317Y016624D01*
X009317Y016804D01*
X009362Y016850D01*
X009497Y016850D01*
X009497Y016579D01*
X009202Y016579D02*
X009022Y016579D01*
X009112Y016579D02*
X009112Y016850D01*
X009202Y016759D01*
X008907Y016804D02*
X008862Y016850D01*
X008772Y016850D01*
X008727Y016804D01*
X008727Y016759D01*
X008907Y016579D01*
X008727Y016579D01*
X008497Y016500D02*
X008497Y016229D01*
X008362Y016229D01*
X008317Y016274D01*
X008317Y016454D01*
X008362Y016500D01*
X008497Y016500D01*
X008202Y016409D02*
X008112Y016500D01*
X008112Y016229D01*
X008202Y016229D02*
X008022Y016229D01*
X007907Y016274D02*
X007862Y016229D01*
X007772Y016229D01*
X007727Y016274D01*
X007727Y016319D01*
X007772Y016364D01*
X007817Y016364D01*
X007772Y016364D02*
X007727Y016409D01*
X007727Y016454D01*
X007772Y016500D01*
X007862Y016500D01*
X007907Y016454D01*
X007497Y016624D02*
X007452Y016579D01*
X007362Y016579D01*
X007317Y016624D01*
X007317Y016714D01*
X007407Y016714D01*
X007497Y016804D02*
X007497Y016624D01*
X007497Y016804D02*
X007452Y016850D01*
X007362Y016850D01*
X007317Y016804D01*
X007202Y016850D02*
X007022Y016579D01*
X007022Y016850D01*
X006907Y016850D02*
X006907Y016579D01*
X006772Y016579D01*
X006727Y016624D01*
X006727Y016804D01*
X006772Y016850D01*
X006907Y016850D01*
X006497Y016500D02*
X006362Y016500D01*
X006317Y016454D01*
X006317Y016364D01*
X006362Y016319D01*
X006497Y016319D01*
X006497Y016229D02*
X006497Y016500D01*
X006407Y016319D02*
X006317Y016229D01*
X006202Y016229D02*
X006022Y016229D01*
X005907Y016229D02*
X005907Y016500D01*
X005727Y016500D01*
X005817Y016364D02*
X005907Y016364D01*
X006022Y016500D02*
X006202Y016500D01*
X006202Y016229D01*
X006202Y016364D02*
X006112Y016364D01*
X006197Y016629D02*
X006197Y016809D01*
X006107Y016900D01*
X006017Y016809D01*
X006017Y016629D01*
X006017Y016764D02*
X006197Y016764D01*
X007202Y016850D02*
X007202Y016579D01*
X010727Y016624D02*
X010772Y016579D01*
X010862Y016579D01*
X010907Y016624D01*
X010727Y016804D01*
X010727Y016624D01*
X010907Y016624D02*
X010907Y016804D01*
X010862Y016850D01*
X010772Y016850D01*
X010727Y016804D01*
X011022Y016579D02*
X011202Y016579D01*
X011112Y016579D02*
X011112Y016850D01*
X011202Y016759D01*
X011317Y016804D02*
X011362Y016850D01*
X011497Y016850D01*
X011497Y016579D01*
X011362Y016579D01*
X011317Y016624D01*
X011317Y016804D01*
D14*
X011122Y016279D03*
X009122Y016279D03*
X007122Y016279D03*
X009722Y002829D03*
X010722Y002279D03*
X011722Y002829D03*
X012722Y002279D03*
X013722Y002829D03*
X014722Y002279D03*
D15*
X014722Y003004D03*
X013722Y002104D03*
X012722Y003004D03*
X011722Y002104D03*
X010722Y003004D03*
X009722Y002104D03*
X016722Y002104D03*
X017722Y003004D03*
X018722Y002104D03*
X019722Y003004D03*
X020722Y002104D03*
X021722Y003004D03*
X020722Y016104D03*
X018722Y016104D03*
X016722Y016104D03*
X014722Y016104D03*
X012122Y016104D03*
X010122Y016104D03*
X008122Y016104D03*
X006122Y016104D03*
D16*
X011689Y016311D02*
X011689Y016598D01*
X011761Y016670D01*
X011905Y016670D01*
X011976Y016598D01*
X011976Y016526D01*
X011905Y016454D01*
X011689Y016454D01*
X011689Y016311D02*
X011761Y016239D01*
X011905Y016239D01*
X011976Y016311D01*
X012150Y016311D02*
X012150Y016598D01*
X012222Y016670D01*
X012437Y016670D01*
X012437Y016239D01*
X012222Y016239D01*
X012150Y016311D01*
X012689Y016511D02*
X012761Y016439D01*
X012905Y016439D01*
X012976Y016511D01*
X012976Y016583D01*
X012905Y016654D01*
X012761Y016654D01*
X012689Y016583D01*
X012689Y016511D01*
X012761Y016654D02*
X012689Y016726D01*
X012689Y016798D01*
X012761Y016870D01*
X012905Y016870D01*
X012976Y016798D01*
X012976Y016726D01*
X012905Y016654D01*
X013150Y016511D02*
X013222Y016439D01*
X013437Y016439D01*
X013437Y016870D01*
X013222Y016870D01*
X013150Y016798D01*
X013150Y016511D01*
X014339Y016598D02*
X014626Y016311D01*
X014626Y016239D01*
X014800Y016311D02*
X014800Y016598D01*
X014872Y016670D01*
X015087Y016670D01*
X015087Y016239D01*
X014872Y016239D01*
X014800Y016311D01*
X014626Y016670D02*
X014339Y016670D01*
X014339Y016598D01*
X015339Y016583D02*
X015411Y016654D01*
X015626Y016654D01*
X015626Y016511D01*
X015555Y016439D01*
X015411Y016439D01*
X015339Y016511D01*
X015339Y016583D01*
X015483Y016798D02*
X015339Y016870D01*
X015483Y016798D02*
X015626Y016654D01*
X015800Y016511D02*
X015800Y016798D01*
X015872Y016870D01*
X016087Y016870D01*
X016087Y016439D01*
X015872Y016439D01*
X015800Y016511D01*
X016339Y016454D02*
X016339Y016311D01*
X016411Y016239D01*
X016555Y016239D01*
X016626Y016311D01*
X016626Y016454D02*
X016483Y016526D01*
X016411Y016526D01*
X016339Y016454D01*
X016339Y016670D02*
X016626Y016670D01*
X016626Y016454D01*
X016800Y016311D02*
X016800Y016598D01*
X016872Y016670D01*
X017087Y016670D01*
X017087Y016239D01*
X016872Y016239D01*
X016800Y016311D01*
X017411Y016439D02*
X017411Y016870D01*
X017626Y016654D01*
X017339Y016654D01*
X017800Y016511D02*
X017800Y016798D01*
X017872Y016870D01*
X018087Y016870D01*
X018087Y016439D01*
X017872Y016439D01*
X017800Y016511D01*
X018339Y016526D02*
X018411Y016454D01*
X018339Y016383D01*
X018339Y016311D01*
X018411Y016239D01*
X018555Y016239D01*
X018626Y016311D01*
X018800Y016311D02*
X018800Y016598D01*
X018872Y016670D01*
X019087Y016670D01*
X019087Y016239D01*
X018872Y016239D01*
X018800Y016311D01*
X018626Y016598D02*
X018555Y016670D01*
X018411Y016670D01*
X018339Y016598D01*
X018339Y016526D01*
X018411Y016454D02*
X018483Y016454D01*
X019339Y016439D02*
X019626Y016439D01*
X019339Y016726D01*
X019339Y016798D01*
X019411Y016870D01*
X019555Y016870D01*
X019626Y016798D01*
X019800Y016798D02*
X019872Y016870D01*
X020087Y016870D01*
X020087Y016439D01*
X019872Y016439D01*
X019800Y016511D01*
X019800Y016798D01*
X020483Y016670D02*
X020483Y016239D01*
X020626Y016239D02*
X020339Y016239D01*
X020626Y016526D02*
X020483Y016670D01*
X020800Y016598D02*
X020800Y016311D01*
X020872Y016239D01*
X021087Y016239D01*
X021087Y016670D01*
X020872Y016670D01*
X020800Y016598D01*
X021339Y016511D02*
X021411Y016439D01*
X021555Y016439D01*
X021626Y016511D01*
X021339Y016798D01*
X021339Y016511D01*
X021339Y016798D02*
X021411Y016870D01*
X021555Y016870D01*
X021626Y016798D01*
X021626Y016511D01*
X021800Y016511D02*
X021872Y016439D01*
X022087Y016439D01*
X022087Y016870D01*
X021872Y016870D01*
X021800Y016798D01*
X021800Y016511D01*
X021943Y002870D02*
X021800Y002726D01*
X021800Y002439D01*
X021626Y002511D02*
X021555Y002439D01*
X021411Y002439D01*
X021339Y002511D01*
X021339Y002654D01*
X021411Y002726D01*
X021483Y002726D01*
X021626Y002654D01*
X021626Y002870D01*
X021339Y002870D01*
X021087Y002526D02*
X020943Y002670D01*
X020800Y002526D01*
X020800Y002239D01*
X020800Y002454D02*
X021087Y002454D01*
X021087Y002526D02*
X021087Y002239D01*
X020626Y002454D02*
X020339Y002454D01*
X020411Y002239D02*
X020411Y002670D01*
X020626Y002454D01*
X020087Y002439D02*
X020087Y002726D01*
X019943Y002870D01*
X019800Y002726D01*
X019800Y002439D01*
X019626Y002511D02*
X019555Y002439D01*
X019411Y002439D01*
X019339Y002511D01*
X019339Y002583D01*
X019411Y002654D01*
X019483Y002654D01*
X019411Y002654D02*
X019339Y002726D01*
X019339Y002798D01*
X019411Y002870D01*
X019555Y002870D01*
X019626Y002798D01*
X019800Y002654D02*
X020087Y002654D01*
X019087Y002526D02*
X019087Y002239D01*
X019087Y002454D02*
X018800Y002454D01*
X018800Y002526D02*
X018800Y002239D01*
X018626Y002239D02*
X018339Y002526D01*
X018339Y002598D01*
X018411Y002670D01*
X018555Y002670D01*
X018626Y002598D01*
X018800Y002526D02*
X018943Y002670D01*
X019087Y002526D01*
X018626Y002239D02*
X018339Y002239D01*
X018087Y002439D02*
X018087Y002726D01*
X017943Y002870D01*
X017800Y002726D01*
X017800Y002439D01*
X017626Y002439D02*
X017339Y002439D01*
X017483Y002439D02*
X017483Y002870D01*
X017626Y002726D01*
X017800Y002654D02*
X018087Y002654D01*
X017087Y002526D02*
X017087Y002239D01*
X017087Y002454D02*
X016800Y002454D01*
X016800Y002526D02*
X016800Y002239D01*
X016626Y002311D02*
X016339Y002598D01*
X016339Y002311D01*
X016411Y002239D01*
X016555Y002239D01*
X016626Y002311D01*
X016626Y002598D01*
X016555Y002670D01*
X016411Y002670D01*
X016339Y002598D01*
X016800Y002526D02*
X016943Y002670D01*
X017087Y002526D01*
X021800Y002654D02*
X022087Y002654D01*
X022087Y002726D02*
X021943Y002870D01*
X022087Y002726D02*
X022087Y002439D01*
D17*
X021722Y002204D03*
X020722Y002904D03*
X019722Y002204D03*
X018722Y002904D03*
X017722Y002204D03*
X016722Y002904D03*
X017722Y016204D03*
X019722Y016204D03*
X021722Y016204D03*
X015722Y016204D03*
X013122Y016204D03*
D18*
X013122Y018504D03*
X011122Y018504D03*
X009122Y018504D03*
X007122Y018504D03*
X015722Y018504D03*
X017722Y018504D03*
X019722Y018504D03*
X021722Y018504D03*
D19*
X020722Y018404D03*
X018722Y018404D03*
X016722Y018404D03*
X014722Y018404D03*
X012122Y018404D03*
D20*
X010122Y018304D03*
X008122Y018304D03*
D21*
X006122Y018529D03*
M02*
