G75*
G70*
%OFA0B0*%
%FSLAX24Y24*%
%IPPOS*%
%LPD*%
%AMOC8*
5,1,8,0,0,1.08239X$1,22.5*
%
%ADD10C,0.0080*%
%ADD11R,0.0500X0.0350*%
%ADD12C,0.0050*%
%ADD13C,0.0070*%
%ADD14R,0.0200X0.0450*%
%ADD15R,0.0200X0.0100*%
%ADD16R,0.0200X0.0300*%
%ADD17R,0.0200X0.3300*%
%ADD18C,0.0220*%
%ADD19C,0.0240*%
%ADD20R,0.0200X0.3100*%
%ADD21R,0.0200X0.3450*%
%ADD22R,0.0600X0.1000*%
%ADD23C,0.0160*%
%ADD24C,0.0060*%
%ADD25C,0.0040*%
D10*
X001412Y000694D02*
X001412Y001175D01*
X001652Y001175D01*
X001732Y001095D01*
X001732Y000935D01*
X001652Y000854D01*
X001412Y000854D01*
X001572Y000854D02*
X001732Y000694D01*
X001927Y000774D02*
X001927Y000935D01*
X002007Y001015D01*
X002168Y001015D01*
X002248Y000935D01*
X002248Y000854D01*
X001927Y000854D01*
X001927Y000774D02*
X002007Y000694D01*
X002168Y000694D01*
X002443Y000694D02*
X002683Y000694D01*
X002763Y000774D01*
X002683Y000854D01*
X002523Y000854D01*
X002443Y000935D01*
X002523Y001015D01*
X002763Y001015D01*
X002959Y000935D02*
X003039Y001015D01*
X003199Y001015D01*
X003279Y000935D01*
X003279Y000854D01*
X002959Y000854D01*
X002959Y000774D02*
X002959Y000935D01*
X002959Y000774D02*
X003039Y000694D01*
X003199Y000694D01*
X003554Y000774D02*
X003554Y001095D01*
X003474Y001015D02*
X003634Y001015D01*
X003554Y000774D02*
X003634Y000694D01*
X002672Y001604D02*
X001867Y001604D01*
X001072Y001954D02*
X001072Y003654D01*
X001879Y004004D02*
X002672Y004004D01*
X002472Y004554D02*
X001972Y004554D01*
X001722Y004804D01*
X001722Y005304D01*
X001472Y005554D01*
X000972Y005554D01*
X000722Y005304D01*
X000722Y004804D01*
X000972Y004554D01*
X001472Y004554D01*
X001722Y004804D01*
X001722Y005304D01*
X001972Y005554D01*
X002472Y005554D01*
X002722Y005304D01*
X002972Y005554D01*
X003472Y005554D01*
X003722Y005304D01*
X003972Y005554D01*
X004472Y005554D01*
X004722Y005304D01*
X004972Y005554D01*
X005472Y005554D01*
X005722Y005304D01*
X005972Y005554D01*
X006472Y005554D01*
X006722Y005304D01*
X006972Y005554D01*
X007472Y005554D01*
X007722Y005304D01*
X007972Y005554D01*
X008472Y005554D01*
X008722Y005304D01*
X008972Y005554D01*
X009472Y005554D01*
X009722Y005304D01*
X009972Y005554D01*
X010472Y005554D01*
X010722Y005304D01*
X010972Y005554D01*
X011472Y005554D01*
X011722Y005304D01*
X011972Y005554D01*
X012472Y005554D01*
X012722Y005304D01*
X012972Y005554D01*
X013472Y005554D01*
X013722Y005304D01*
X013972Y005554D01*
X014472Y005554D01*
X014722Y005304D01*
X014972Y005554D01*
X015472Y005554D01*
X015722Y005304D01*
X015972Y005554D01*
X016472Y005554D01*
X016722Y005304D01*
X016972Y005554D01*
X017472Y005554D01*
X017722Y005304D01*
X017972Y005554D01*
X018472Y005554D01*
X018722Y005304D01*
X018972Y005554D01*
X019472Y005554D01*
X019722Y005304D01*
X019972Y005554D01*
X020472Y005554D01*
X020722Y005304D01*
X020972Y005554D01*
X021472Y005554D01*
X021722Y005304D01*
X021722Y004804D01*
X021972Y004554D01*
X022472Y004554D01*
X022722Y004804D01*
X022722Y005304D01*
X022472Y005554D01*
X021972Y005554D01*
X021722Y005304D01*
X021722Y004804D01*
X021472Y004554D01*
X020972Y004554D01*
X020722Y004804D01*
X020472Y004554D01*
X019972Y004554D01*
X019722Y004804D01*
X019472Y004554D01*
X018972Y004554D01*
X018722Y004804D01*
X018472Y004554D01*
X017972Y004554D01*
X017722Y004804D01*
X017472Y004554D01*
X016972Y004554D01*
X016722Y004804D01*
X016472Y004554D01*
X015972Y004554D01*
X015722Y004804D01*
X015472Y004554D01*
X014972Y004554D01*
X014722Y004804D01*
X014472Y004554D01*
X013972Y004554D01*
X013722Y004804D01*
X013472Y004554D01*
X012972Y004554D01*
X012722Y004804D01*
X012472Y004554D01*
X011972Y004554D01*
X011722Y004804D01*
X011472Y004554D01*
X010972Y004554D01*
X010722Y004804D01*
X010472Y004554D01*
X009972Y004554D01*
X009722Y004804D01*
X009472Y004554D01*
X008972Y004554D01*
X008722Y004804D01*
X008472Y004554D01*
X007972Y004554D01*
X007722Y004804D01*
X007472Y004554D01*
X006972Y004554D01*
X006722Y004804D01*
X006472Y004554D01*
X005972Y004554D01*
X005722Y004804D01*
X005472Y004554D01*
X004972Y004554D01*
X004722Y004804D01*
X004472Y004554D01*
X003972Y004554D01*
X003722Y004804D01*
X003472Y004554D01*
X002972Y004554D01*
X002722Y004804D01*
X002472Y004554D01*
X003472Y003654D02*
X003472Y001954D01*
X004061Y002744D02*
X004061Y002980D01*
X004140Y003058D01*
X004297Y003058D01*
X004375Y002980D01*
X004375Y002744D01*
X004532Y002744D02*
X004061Y002744D01*
X004375Y002901D02*
X004532Y003058D01*
X004722Y003054D02*
X004972Y002804D01*
X005472Y002804D01*
X005722Y003054D01*
X005722Y003554D01*
X005472Y003804D01*
X004972Y003804D01*
X004722Y003554D01*
X004722Y003054D01*
X004453Y003251D02*
X004532Y003329D01*
X004532Y003486D01*
X004375Y003564D02*
X004375Y003251D01*
X004453Y003251D02*
X004297Y003251D01*
X004218Y003329D01*
X004218Y003486D01*
X004297Y003564D01*
X004375Y003564D01*
X004453Y003757D02*
X004297Y003757D01*
X004218Y003836D01*
X004218Y004071D01*
X004061Y004071D02*
X004532Y004071D01*
X004532Y003836D01*
X004453Y003757D01*
X004867Y002459D02*
X005576Y002459D01*
X005576Y001976D01*
X005572Y001772D02*
X005222Y001772D01*
X005458Y001636D01*
X004986Y001636D01*
X005222Y001772D01*
X004871Y001772D01*
X004867Y001976D02*
X004867Y002459D01*
X004867Y001492D02*
X004867Y000949D01*
X005576Y000949D01*
X005576Y001482D01*
X006867Y001492D02*
X006867Y000949D01*
X007576Y000949D01*
X007576Y001482D01*
X007458Y001636D02*
X007222Y001772D01*
X006986Y001636D01*
X007458Y001636D01*
X007572Y001772D02*
X007222Y001772D01*
X006871Y001772D01*
X006867Y001976D02*
X006867Y002459D01*
X007576Y002459D01*
X007576Y001976D01*
X007761Y002030D02*
X007761Y001873D01*
X007840Y001794D01*
X008153Y001794D01*
X008232Y001873D01*
X008232Y002030D01*
X008153Y002108D01*
X007997Y002108D01*
X007997Y001951D01*
X007840Y002108D02*
X007761Y002030D01*
X007918Y002301D02*
X008232Y002301D01*
X008075Y002301D02*
X007918Y002458D01*
X007918Y002536D01*
X007997Y002723D02*
X007918Y002801D01*
X007918Y002958D01*
X007997Y003036D01*
X008075Y003036D01*
X008075Y002723D01*
X008153Y002723D02*
X007997Y002723D01*
X008153Y002723D02*
X008232Y002801D01*
X008232Y002958D01*
X008153Y003229D02*
X007997Y003229D01*
X007918Y003308D01*
X007918Y003464D01*
X007997Y003543D01*
X008075Y003543D01*
X008075Y003229D01*
X008153Y003229D02*
X008232Y003308D01*
X008232Y003464D01*
X008232Y003736D02*
X007918Y003736D01*
X007918Y003971D01*
X007997Y004049D01*
X008232Y004049D01*
X007722Y003554D02*
X007722Y003054D01*
X007472Y002804D01*
X006972Y002804D01*
X006722Y003054D01*
X006722Y003554D01*
X006972Y003804D01*
X007472Y003804D01*
X007722Y003554D01*
X009222Y003304D02*
X009472Y003054D01*
X009972Y003054D01*
X010222Y003304D01*
X010472Y003054D01*
X010972Y003054D01*
X011222Y003304D01*
X011472Y003054D01*
X011972Y003054D01*
X012222Y003304D01*
X012472Y003054D01*
X012972Y003054D01*
X013222Y003304D01*
X013472Y003054D01*
X013972Y003054D01*
X014222Y003304D01*
X014472Y003054D01*
X014972Y003054D01*
X015222Y003304D01*
X015222Y003804D01*
X014972Y004054D01*
X014472Y004054D01*
X014222Y003804D01*
X013972Y004054D01*
X013472Y004054D01*
X013222Y003804D01*
X012972Y004054D01*
X012472Y004054D01*
X012222Y003804D01*
X011972Y004054D01*
X011472Y004054D01*
X011222Y003804D01*
X010972Y004054D01*
X010472Y004054D01*
X010222Y003804D01*
X009972Y004054D01*
X009472Y004054D01*
X009222Y003804D01*
X009222Y003304D01*
X009472Y002054D02*
X009222Y001804D01*
X009222Y001304D01*
X009472Y001054D01*
X009972Y001054D01*
X010222Y001304D01*
X010472Y001054D01*
X010972Y001054D01*
X011222Y001304D01*
X011472Y001054D01*
X011972Y001054D01*
X012222Y001304D01*
X012472Y001054D01*
X012972Y001054D01*
X013222Y001304D01*
X013472Y001054D01*
X013972Y001054D01*
X014222Y001304D01*
X014472Y001054D01*
X014972Y001054D01*
X015222Y001304D01*
X015222Y001804D01*
X014972Y002054D01*
X014472Y002054D01*
X014222Y001804D01*
X013972Y002054D01*
X013472Y002054D01*
X013222Y001804D01*
X012972Y002054D01*
X012472Y002054D01*
X012222Y001804D01*
X011972Y002054D01*
X011472Y002054D01*
X011222Y001804D01*
X010972Y002054D01*
X010472Y002054D01*
X010222Y001804D01*
X009972Y002054D01*
X009472Y002054D01*
X016222Y001804D02*
X016222Y001304D01*
X016472Y001054D01*
X016972Y001054D01*
X017222Y001304D01*
X017472Y001054D01*
X017972Y001054D01*
X018222Y001304D01*
X018472Y001054D01*
X018972Y001054D01*
X019222Y001304D01*
X019472Y001054D01*
X019972Y001054D01*
X020222Y001304D01*
X020472Y001054D01*
X020972Y001054D01*
X021222Y001304D01*
X021472Y001054D01*
X021972Y001054D01*
X022222Y001304D01*
X022222Y001804D01*
X021972Y002054D01*
X021472Y002054D01*
X021222Y001804D01*
X020972Y002054D01*
X020472Y002054D01*
X020222Y001804D01*
X019972Y002054D01*
X019472Y002054D01*
X019222Y001804D01*
X018972Y002054D01*
X018472Y002054D01*
X018222Y001804D01*
X017972Y002054D01*
X017472Y002054D01*
X017222Y001804D01*
X016972Y002054D01*
X016472Y002054D01*
X016222Y001804D01*
X016472Y003054D02*
X016972Y003054D01*
X017222Y003304D01*
X017472Y003054D01*
X017972Y003054D01*
X018222Y003304D01*
X018472Y003054D01*
X018972Y003054D01*
X019222Y003304D01*
X019472Y003054D01*
X019972Y003054D01*
X020222Y003304D01*
X020472Y003054D01*
X020972Y003054D01*
X021222Y003304D01*
X021472Y003054D01*
X021972Y003054D01*
X022222Y003304D01*
X022222Y003804D01*
X021972Y004054D01*
X021472Y004054D01*
X021222Y003804D01*
X020972Y004054D01*
X020472Y004054D01*
X020222Y003804D01*
X019972Y004054D01*
X019472Y004054D01*
X019222Y003804D01*
X018972Y004054D01*
X018472Y004054D01*
X018222Y003804D01*
X017972Y004054D01*
X017472Y004054D01*
X017222Y003804D01*
X016972Y004054D01*
X016472Y004054D01*
X016222Y003804D01*
X016222Y003304D01*
X016472Y003054D01*
X022922Y004934D02*
X023202Y005215D01*
X023202Y004934D01*
X023132Y004864D01*
X022992Y004864D01*
X022922Y004934D01*
X022922Y005215D01*
X022992Y005285D01*
X023132Y005285D01*
X023202Y005215D01*
X023382Y005285D02*
X023382Y005004D01*
X023522Y004864D01*
X023662Y005004D01*
X023662Y005285D01*
X023482Y005574D02*
X023061Y005574D01*
X023061Y005784D01*
X023132Y005855D01*
X023272Y005855D01*
X023342Y005784D01*
X023342Y005574D01*
X023342Y006035D02*
X023061Y006035D01*
X023061Y006175D02*
X023202Y006035D01*
X023061Y006175D02*
X023061Y006245D01*
X023061Y006488D02*
X023061Y006628D01*
X023132Y006699D01*
X023342Y006699D01*
X023342Y006488D01*
X023272Y006418D01*
X023202Y006488D01*
X023202Y006699D01*
X023132Y006879D02*
X023272Y006879D01*
X023342Y006949D01*
X023342Y007159D01*
X023272Y007409D02*
X023342Y007479D01*
X023272Y007409D02*
X022991Y007409D01*
X023061Y007339D02*
X023061Y007479D01*
X023061Y007646D02*
X023061Y007716D01*
X023342Y007716D01*
X023342Y007646D02*
X023342Y007786D01*
X023272Y007953D02*
X023132Y007953D01*
X023061Y008023D01*
X023061Y008233D01*
X023061Y008483D02*
X023061Y008623D01*
X023132Y008693D01*
X023342Y008693D01*
X023342Y008483D01*
X023272Y008413D01*
X023202Y008483D01*
X023202Y008693D01*
X023342Y008874D02*
X023342Y009014D01*
X023342Y008944D02*
X022921Y008944D01*
X022921Y008874D01*
X023061Y009250D02*
X023061Y009391D01*
X023132Y009461D01*
X023342Y009461D01*
X023342Y009250D01*
X023272Y009180D01*
X023202Y009250D01*
X023202Y009461D01*
X023202Y009641D02*
X023061Y009781D01*
X023061Y009851D01*
X023132Y010024D02*
X023061Y010094D01*
X023061Y010305D01*
X022921Y010305D02*
X023342Y010305D01*
X023342Y010094D01*
X023272Y010024D01*
X023132Y010024D01*
X023061Y009641D02*
X023342Y009641D01*
X023272Y010485D02*
X023061Y010485D01*
X023272Y010485D02*
X023342Y010555D01*
X023342Y010765D01*
X023061Y010765D01*
X023061Y010945D02*
X023061Y011015D01*
X023342Y011015D01*
X023342Y010945D02*
X023342Y011085D01*
X023342Y011252D02*
X023061Y011252D01*
X023061Y011462D01*
X023132Y011532D01*
X023342Y011532D01*
X023272Y011712D02*
X023132Y011712D01*
X023061Y011782D01*
X023061Y011922D01*
X023132Y011993D01*
X023272Y011993D01*
X023342Y011922D01*
X023342Y011782D01*
X023272Y011712D01*
X023272Y012173D02*
X023272Y012243D01*
X023342Y012243D01*
X023342Y012173D01*
X023272Y012173D01*
X023272Y012403D02*
X023342Y012473D01*
X023342Y012683D01*
X023272Y012863D02*
X023342Y012933D01*
X023342Y013073D01*
X023272Y013143D01*
X023132Y013143D01*
X023061Y013073D01*
X023061Y012933D01*
X023132Y012863D01*
X023272Y012863D01*
X023061Y012683D02*
X023061Y012473D01*
X023132Y012403D01*
X023272Y012403D01*
X023342Y013324D02*
X023061Y013324D01*
X023061Y013394D01*
X023132Y013464D01*
X023061Y013534D01*
X023132Y013604D01*
X023342Y013604D01*
X023342Y013464D02*
X023132Y013464D01*
X023032Y013864D02*
X022892Y013864D01*
X022822Y013934D01*
X022822Y014074D02*
X022962Y014145D01*
X023032Y014145D01*
X023102Y014074D01*
X023102Y013934D01*
X023032Y013864D01*
X023282Y014004D02*
X023422Y013864D01*
X023562Y014004D01*
X023562Y014285D01*
X023282Y014285D02*
X023282Y014004D01*
X023102Y014285D02*
X022822Y014285D01*
X022822Y014074D01*
X022722Y014304D02*
X022722Y013804D01*
X022472Y013554D01*
X021972Y013554D01*
X021722Y013804D01*
X021722Y014304D01*
X021972Y014554D01*
X022472Y014554D01*
X022722Y014304D01*
X022222Y014554D02*
X001222Y014554D01*
X001472Y014554D02*
X000972Y014554D01*
X000722Y014304D01*
X000722Y013804D01*
X000972Y013554D01*
X001472Y013554D01*
X001722Y013804D01*
X001722Y014304D01*
X001472Y014554D01*
X001722Y014304D02*
X001972Y014554D01*
X002472Y014554D01*
X002722Y014304D01*
X002972Y014554D01*
X003472Y014554D01*
X003722Y014304D01*
X003972Y014554D01*
X004472Y014554D01*
X004722Y014304D01*
X004972Y014554D01*
X005472Y014554D01*
X005722Y014304D01*
X005972Y014554D01*
X006472Y014554D01*
X006722Y014304D01*
X006972Y014554D01*
X007472Y014554D01*
X007722Y014304D01*
X007972Y014554D01*
X008472Y014554D01*
X008722Y014304D01*
X008972Y014554D01*
X009472Y014554D01*
X009722Y014304D01*
X009972Y014554D01*
X010472Y014554D01*
X010722Y014304D01*
X010972Y014554D01*
X011472Y014554D01*
X011722Y014304D01*
X011972Y014554D01*
X012472Y014554D01*
X012722Y014304D01*
X012972Y014554D01*
X013472Y014554D01*
X013722Y014304D01*
X013972Y014554D01*
X014472Y014554D01*
X014722Y014304D01*
X014972Y014554D01*
X015472Y014554D01*
X015722Y014304D01*
X015972Y014554D01*
X016472Y014554D01*
X016722Y014304D01*
X016972Y014554D01*
X017472Y014554D01*
X017722Y014304D01*
X017972Y014554D01*
X018472Y014554D01*
X018722Y014304D01*
X018972Y014554D01*
X019472Y014554D01*
X019722Y014304D01*
X019972Y014554D01*
X020472Y014554D01*
X020722Y014304D01*
X020972Y014554D01*
X021472Y014554D01*
X021722Y014304D01*
X021722Y013804D01*
X021472Y013554D01*
X020972Y013554D01*
X020722Y013804D01*
X020472Y013554D01*
X019972Y013554D01*
X019722Y013804D01*
X019472Y013554D01*
X018972Y013554D01*
X018722Y013804D01*
X018472Y013554D01*
X017972Y013554D01*
X017722Y013804D01*
X017472Y013554D01*
X016972Y013554D01*
X016722Y013804D01*
X016472Y013554D01*
X015972Y013554D01*
X015722Y013804D01*
X015472Y013554D01*
X014972Y013554D01*
X014722Y013804D01*
X014472Y013554D01*
X013972Y013554D01*
X013722Y013804D01*
X013472Y013554D01*
X012972Y013554D01*
X012722Y013804D01*
X012472Y013554D01*
X011972Y013554D01*
X011722Y013804D01*
X011472Y013554D01*
X010972Y013554D01*
X010722Y013804D01*
X010472Y013554D01*
X009972Y013554D01*
X009722Y013804D01*
X009472Y013554D01*
X008972Y013554D01*
X008722Y013804D01*
X008472Y013554D01*
X007972Y013554D01*
X007722Y013804D01*
X007472Y013554D01*
X006972Y013554D01*
X006722Y013804D01*
X006472Y013554D01*
X005972Y013554D01*
X005722Y013804D01*
X005472Y013554D01*
X004972Y013554D01*
X004722Y013804D01*
X004472Y013554D01*
X003972Y013554D01*
X003722Y013804D01*
X003472Y013554D01*
X002972Y013554D01*
X002722Y013804D01*
X002472Y013554D01*
X001972Y013554D01*
X001722Y013804D01*
X001722Y014304D01*
X001222Y013554D02*
X022072Y013554D01*
X020722Y013804D02*
X020722Y014304D01*
X020972Y015054D02*
X020472Y015054D01*
X020222Y015304D01*
X019972Y015054D01*
X019472Y015054D01*
X019222Y015304D01*
X018972Y015054D01*
X018472Y015054D01*
X018222Y015304D01*
X017972Y015054D01*
X017472Y015054D01*
X017222Y015304D01*
X016972Y015054D01*
X016472Y015054D01*
X016222Y015304D01*
X015972Y015054D01*
X015472Y015054D01*
X015222Y015304D01*
X014972Y015054D01*
X014472Y015054D01*
X014222Y015304D01*
X014222Y015804D01*
X014472Y016054D01*
X014972Y016054D01*
X015222Y015804D01*
X015472Y016054D01*
X015972Y016054D01*
X016222Y015804D01*
X016472Y016054D01*
X016972Y016054D01*
X017222Y015804D01*
X017472Y016054D01*
X017972Y016054D01*
X018222Y015804D01*
X018472Y016054D01*
X018972Y016054D01*
X019222Y015804D01*
X019472Y016054D01*
X019972Y016054D01*
X020222Y015804D01*
X020472Y016054D01*
X020972Y016054D01*
X021222Y015804D01*
X021472Y016054D01*
X021972Y016054D01*
X022222Y015804D01*
X022222Y015304D01*
X021972Y015054D01*
X021472Y015054D01*
X021222Y015304D01*
X020972Y015054D01*
X019722Y014304D02*
X019722Y013804D01*
X018722Y013804D02*
X018722Y014304D01*
X017722Y014304D02*
X017722Y013804D01*
X016722Y013804D02*
X016722Y014304D01*
X015722Y014304D02*
X015722Y013804D01*
X014722Y013804D02*
X014722Y014304D01*
X013722Y014304D02*
X013722Y013804D01*
X012722Y013804D02*
X012722Y014304D01*
X012872Y015054D02*
X012622Y015304D01*
X012372Y015054D01*
X011872Y015054D01*
X011622Y015304D01*
X011372Y015054D01*
X010872Y015054D01*
X010622Y015304D01*
X010372Y015054D01*
X009872Y015054D01*
X009622Y015304D01*
X009372Y015054D01*
X008872Y015054D01*
X008622Y015304D01*
X008372Y015054D01*
X007872Y015054D01*
X007622Y015304D01*
X007372Y015054D01*
X006872Y015054D01*
X006622Y015304D01*
X006372Y015054D01*
X005872Y015054D01*
X005622Y015304D01*
X005622Y015804D01*
X005872Y016054D01*
X006372Y016054D01*
X006622Y015804D01*
X006872Y016054D01*
X007372Y016054D01*
X007622Y015804D01*
X007872Y016054D01*
X008372Y016054D01*
X008622Y015804D01*
X008872Y016054D01*
X009372Y016054D01*
X009622Y015804D01*
X009872Y016054D01*
X010372Y016054D01*
X010622Y015804D01*
X010872Y016054D01*
X011372Y016054D01*
X011622Y015804D01*
X011872Y016054D01*
X012372Y016054D01*
X012622Y015804D01*
X012872Y016054D01*
X013372Y016054D01*
X013622Y015804D01*
X013622Y015304D01*
X013372Y015054D01*
X012872Y015054D01*
X011722Y014304D02*
X011722Y013804D01*
X010722Y013804D02*
X010722Y014304D01*
X009722Y014304D02*
X009722Y013804D01*
X008722Y013804D02*
X008722Y014304D01*
X007722Y014304D02*
X007722Y013804D01*
X006722Y013804D02*
X006722Y014304D01*
X005722Y014304D02*
X005722Y013804D01*
X004722Y013804D02*
X004722Y014304D01*
X003722Y014304D02*
X003722Y013804D01*
X002722Y013804D02*
X002722Y014304D01*
X002787Y016258D02*
X001960Y016258D01*
X003771Y016534D02*
X003771Y016888D01*
X004478Y016492D02*
X005265Y016492D01*
X004872Y016492D02*
X004478Y015951D01*
X005265Y015951D01*
X004872Y016492D01*
X003771Y018620D02*
X003771Y018975D01*
X004478Y019217D02*
X005265Y019217D01*
X004872Y019217D02*
X005265Y019757D01*
X004478Y019757D01*
X004872Y019217D01*
X005872Y020054D02*
X005622Y020304D01*
X005622Y020804D01*
X005872Y021054D01*
X006372Y021054D01*
X006622Y020804D01*
X006872Y021054D01*
X007372Y021054D01*
X007622Y020804D01*
X007872Y021054D01*
X008372Y021054D01*
X008622Y020804D01*
X008872Y021054D01*
X009372Y021054D01*
X009622Y020804D01*
X009872Y021054D01*
X010372Y021054D01*
X010622Y020804D01*
X010872Y021054D01*
X011372Y021054D01*
X011622Y020804D01*
X011872Y021054D01*
X012372Y021054D01*
X012622Y020804D01*
X012872Y021054D01*
X013372Y021054D01*
X013622Y020804D01*
X013622Y020304D01*
X013372Y020054D01*
X012872Y020054D01*
X012622Y020304D01*
X012372Y020054D01*
X011872Y020054D01*
X011622Y020304D01*
X011372Y020054D01*
X010872Y020054D01*
X010622Y020304D01*
X010372Y020054D01*
X009872Y020054D01*
X009622Y020304D01*
X009372Y020054D01*
X008872Y020054D01*
X008622Y020304D01*
X008372Y020054D01*
X007872Y020054D01*
X007622Y020304D01*
X007372Y020054D01*
X006872Y020054D01*
X006622Y020304D01*
X006372Y020054D01*
X005872Y020054D01*
X002787Y019250D02*
X001960Y019250D01*
X000668Y012425D02*
X000415Y012425D01*
X000668Y012171D01*
X000732Y012234D01*
X000732Y012361D01*
X000668Y012425D01*
X000415Y012425D02*
X000351Y012361D01*
X000351Y012234D01*
X000415Y012171D01*
X000668Y012171D01*
X000668Y012023D02*
X000732Y012023D01*
X000732Y011959D01*
X000668Y011959D01*
X000668Y012023D01*
X000732Y011789D02*
X000732Y011536D01*
X000732Y011662D02*
X000351Y011662D01*
X000478Y011536D01*
X000478Y011366D02*
X000732Y011239D01*
X000478Y011112D01*
X000542Y010519D02*
X000478Y010455D01*
X000478Y010328D01*
X000542Y010265D01*
X000668Y010265D01*
X000732Y010328D01*
X000732Y010455D01*
X000605Y010519D02*
X000605Y010265D01*
X000732Y010095D02*
X000732Y009905D01*
X000668Y009841D01*
X000542Y009841D01*
X000478Y009905D01*
X000478Y010095D01*
X000732Y009686D02*
X000732Y009559D01*
X000732Y009623D02*
X000478Y009623D01*
X000478Y009559D01*
X000351Y009623D02*
X000288Y009623D01*
X000478Y009389D02*
X000732Y009262D01*
X000478Y009136D01*
X000542Y008966D02*
X000478Y008902D01*
X000478Y008775D01*
X000542Y008712D01*
X000668Y008712D01*
X000732Y008775D01*
X000732Y008902D01*
X000605Y008966D02*
X000605Y008712D01*
X000668Y008542D02*
X000415Y008542D01*
X000351Y008479D01*
X000351Y008289D01*
X000732Y008289D01*
X000732Y008479D01*
X000668Y008542D01*
X000605Y008966D02*
X000542Y008966D01*
X000605Y007695D02*
X000668Y007695D01*
X000732Y007632D01*
X000732Y007441D01*
X000351Y007441D01*
X000351Y007632D01*
X000415Y007695D01*
X000478Y007695D01*
X000542Y007632D01*
X000542Y007441D01*
X000605Y007271D02*
X000668Y007271D01*
X000732Y007208D01*
X000732Y007081D01*
X000668Y007018D01*
X000542Y007081D02*
X000542Y007208D01*
X000605Y007271D01*
X000415Y007271D02*
X000351Y007208D01*
X000351Y007081D01*
X000415Y007018D01*
X000478Y007018D01*
X000542Y007081D01*
X000668Y006848D02*
X000351Y006848D01*
X000351Y006594D02*
X000668Y006594D01*
X000732Y006658D01*
X000732Y006784D01*
X000668Y006848D01*
X000542Y007632D02*
X000605Y007695D01*
X000542Y010519D02*
X000605Y010519D01*
X001572Y002804D02*
X001574Y002856D01*
X001580Y002908D01*
X001590Y002960D01*
X001603Y003010D01*
X001620Y003060D01*
X001641Y003108D01*
X001666Y003154D01*
X001694Y003198D01*
X001725Y003240D01*
X001759Y003280D01*
X001796Y003317D01*
X001836Y003351D01*
X001878Y003382D01*
X001922Y003410D01*
X001968Y003435D01*
X002016Y003456D01*
X002066Y003473D01*
X002116Y003486D01*
X002168Y003496D01*
X002220Y003502D01*
X002272Y003504D01*
X002324Y003502D01*
X002376Y003496D01*
X002428Y003486D01*
X002478Y003473D01*
X002528Y003456D01*
X002576Y003435D01*
X002622Y003410D01*
X002666Y003382D01*
X002708Y003351D01*
X002748Y003317D01*
X002785Y003280D01*
X002819Y003240D01*
X002850Y003198D01*
X002878Y003154D01*
X002903Y003108D01*
X002924Y003060D01*
X002941Y003010D01*
X002954Y002960D01*
X002964Y002908D01*
X002970Y002856D01*
X002972Y002804D01*
X002970Y002752D01*
X002964Y002700D01*
X002954Y002648D01*
X002941Y002598D01*
X002924Y002548D01*
X002903Y002500D01*
X002878Y002454D01*
X002850Y002410D01*
X002819Y002368D01*
X002785Y002328D01*
X002748Y002291D01*
X002708Y002257D01*
X002666Y002226D01*
X002622Y002198D01*
X002576Y002173D01*
X002528Y002152D01*
X002478Y002135D01*
X002428Y002122D01*
X002376Y002112D01*
X002324Y002106D01*
X002272Y002104D01*
X002220Y002106D01*
X002168Y002112D01*
X002116Y002122D01*
X002066Y002135D01*
X002016Y002152D01*
X001968Y002173D01*
X001922Y002198D01*
X001878Y002226D01*
X001836Y002257D01*
X001796Y002291D01*
X001759Y002328D01*
X001725Y002368D01*
X001694Y002410D01*
X001666Y002454D01*
X001641Y002500D01*
X001620Y002548D01*
X001603Y002598D01*
X001590Y002648D01*
X001580Y002700D01*
X001574Y002752D01*
X001572Y002804D01*
X014472Y020054D02*
X014222Y020304D01*
X014222Y020804D01*
X014472Y021054D01*
X014972Y021054D01*
X015222Y020804D01*
X015472Y021054D01*
X015972Y021054D01*
X016222Y020804D01*
X016472Y021054D01*
X016972Y021054D01*
X017222Y020804D01*
X017472Y021054D01*
X017972Y021054D01*
X018222Y020804D01*
X018472Y021054D01*
X018972Y021054D01*
X019222Y020804D01*
X019472Y021054D01*
X019972Y021054D01*
X020222Y020804D01*
X020472Y021054D01*
X020972Y021054D01*
X021222Y020804D01*
X021472Y021054D01*
X021972Y021054D01*
X022222Y020804D01*
X022222Y020304D01*
X021972Y020054D01*
X021472Y020054D01*
X021222Y020304D01*
X020972Y020054D01*
X020472Y020054D01*
X020222Y020304D01*
X019972Y020054D01*
X019472Y020054D01*
X019222Y020304D01*
X018972Y020054D01*
X018472Y020054D01*
X018222Y020304D01*
X017972Y020054D01*
X017472Y020054D01*
X017222Y020304D01*
X016972Y020054D01*
X016472Y020054D01*
X016222Y020304D01*
X015972Y020054D01*
X015472Y020054D01*
X015222Y020304D01*
X014972Y020054D01*
X014472Y020054D01*
X022851Y011015D02*
X022921Y011015D01*
X023342Y008233D02*
X023342Y008023D01*
X023272Y007953D01*
X022921Y007716D02*
X022851Y007716D01*
X023061Y007159D02*
X023061Y006949D01*
X023132Y006879D01*
D11*
X007222Y002629D03*
X005222Y002629D03*
D12*
X005847Y002669D02*
X006027Y002669D01*
X006027Y002759D02*
X005847Y002759D01*
X005847Y002979D02*
X006027Y002979D01*
X006141Y003024D02*
X006186Y002979D01*
X006276Y002979D01*
X006321Y003024D01*
X006321Y003204D01*
X006276Y003250D01*
X006186Y003250D01*
X006141Y003204D01*
X006141Y003024D01*
X006186Y002850D02*
X006141Y002804D01*
X006141Y002624D01*
X006186Y002579D01*
X006276Y002579D01*
X006321Y002624D01*
X006321Y002804D01*
X006276Y002850D01*
X006186Y002850D01*
X005847Y002979D02*
X005847Y003250D01*
X006436Y003250D02*
X006436Y002979D01*
X006526Y003069D01*
X006616Y002979D01*
X006616Y003250D01*
X006616Y002850D02*
X006616Y002579D01*
X006436Y002850D01*
X006436Y002579D01*
X006471Y000950D02*
X006291Y000769D01*
X006336Y000814D02*
X006471Y000679D01*
X006291Y000679D02*
X006291Y000950D01*
X006087Y000950D02*
X006087Y000679D01*
X005997Y000679D02*
X006177Y000679D01*
X005997Y000859D02*
X006087Y000950D01*
X004471Y000950D02*
X004291Y000769D01*
X004336Y000814D02*
X004471Y000679D01*
X004291Y000679D02*
X004291Y000950D01*
X004087Y000950D02*
X004087Y000679D01*
X003997Y000679D02*
X004177Y000679D01*
X003997Y000859D02*
X004087Y000950D01*
X008147Y000859D02*
X008237Y000950D01*
X008237Y000679D01*
X008147Y000679D02*
X008327Y000679D01*
X008441Y000724D02*
X008621Y000904D01*
X008621Y000724D01*
X008576Y000679D01*
X008486Y000679D01*
X008441Y000724D01*
X008441Y000904D01*
X008486Y000950D01*
X008576Y000950D01*
X008621Y000904D01*
X008736Y000904D02*
X008736Y000724D01*
X008916Y000904D01*
X008916Y000724D01*
X008871Y000679D01*
X008781Y000679D01*
X008736Y000724D01*
X008736Y000904D02*
X008781Y000950D01*
X008871Y000950D01*
X008916Y000904D01*
X009031Y000859D02*
X009166Y000859D01*
X009211Y000814D01*
X009211Y000679D01*
X009325Y000679D02*
X009325Y000950D01*
X009505Y000950D01*
X009415Y000814D02*
X009325Y000814D01*
X009031Y000859D02*
X009031Y000679D01*
X009347Y002229D02*
X009347Y002500D01*
X009482Y002500D01*
X009527Y002454D01*
X009527Y002364D01*
X009482Y002319D01*
X009347Y002319D01*
X009437Y002319D02*
X009527Y002229D01*
X009641Y002274D02*
X009686Y002229D01*
X009776Y002229D01*
X009821Y002274D01*
X009821Y002319D01*
X009776Y002364D01*
X009686Y002364D01*
X009641Y002409D01*
X009641Y002454D01*
X009686Y002500D01*
X009776Y002500D01*
X009821Y002454D01*
X009936Y002500D02*
X010116Y002500D01*
X010026Y002500D02*
X010026Y002229D01*
X010392Y002579D02*
X010347Y002624D01*
X010392Y002579D02*
X010482Y002579D01*
X010527Y002624D01*
X010527Y002669D01*
X010482Y002714D01*
X010437Y002714D01*
X010482Y002714D02*
X010527Y002759D01*
X010527Y002804D01*
X010482Y002850D01*
X010392Y002850D01*
X010347Y002804D01*
X010641Y002850D02*
X010641Y002669D01*
X010731Y002579D01*
X010821Y002669D01*
X010821Y002850D01*
X010936Y002804D02*
X010981Y002850D01*
X011071Y002850D01*
X011116Y002804D01*
X011116Y002759D01*
X011071Y002714D01*
X011116Y002669D01*
X011116Y002624D01*
X011071Y002579D01*
X010981Y002579D01*
X010936Y002624D01*
X011026Y002714D02*
X011071Y002714D01*
X011497Y002500D02*
X011497Y002364D01*
X011587Y002409D01*
X011632Y002409D01*
X011677Y002364D01*
X011677Y002274D01*
X011632Y002229D01*
X011542Y002229D01*
X011497Y002274D01*
X011497Y002500D02*
X011677Y002500D01*
X011791Y002500D02*
X011791Y002319D01*
X011881Y002229D01*
X011971Y002319D01*
X011971Y002500D01*
X012347Y002624D02*
X012392Y002579D01*
X012482Y002579D01*
X012527Y002624D01*
X012527Y002714D01*
X012437Y002714D01*
X012347Y002804D02*
X012347Y002624D01*
X012347Y002804D02*
X012392Y002850D01*
X012482Y002850D01*
X012527Y002804D01*
X012641Y002850D02*
X012821Y002579D01*
X012821Y002850D01*
X012936Y002850D02*
X012936Y002579D01*
X013071Y002579D01*
X013116Y002624D01*
X013116Y002804D01*
X013071Y002850D01*
X012936Y002850D01*
X012641Y002850D02*
X012641Y002579D01*
X013347Y002454D02*
X013347Y002274D01*
X013392Y002229D01*
X013482Y002229D01*
X013527Y002274D01*
X013527Y002364D01*
X013437Y002364D01*
X013527Y002454D02*
X013482Y002500D01*
X013392Y002500D01*
X013347Y002454D01*
X013641Y002500D02*
X013821Y002229D01*
X013821Y002500D01*
X013936Y002500D02*
X013936Y002229D01*
X014071Y002229D01*
X014116Y002274D01*
X014116Y002454D01*
X014071Y002500D01*
X013936Y002500D01*
X013641Y002500D02*
X013641Y002229D01*
X014397Y002669D02*
X014397Y002850D01*
X014577Y002850D02*
X014577Y002669D01*
X014487Y002579D01*
X014397Y002669D01*
X014691Y002579D02*
X014781Y002579D01*
X014736Y002579D02*
X014736Y002850D01*
X014691Y002850D02*
X014781Y002850D01*
X014888Y002850D02*
X015068Y002579D01*
X015068Y002850D01*
X014888Y002850D02*
X014888Y002579D01*
X022402Y002624D02*
X022402Y004174D01*
X022452Y004224D01*
X022452Y002624D01*
X023502Y002624D01*
X023502Y002574D01*
X022502Y002574D01*
X022502Y003024D01*
X022502Y003174D01*
X022502Y003224D01*
X022552Y003274D01*
X022502Y003274D01*
X022502Y003324D01*
X022602Y003324D01*
X022552Y003274D01*
X022602Y003274D02*
X022502Y003174D01*
X022502Y003224D02*
X022502Y003274D01*
X022502Y003324D02*
X022602Y003274D01*
X022602Y003324D01*
X022652Y003324D01*
X022602Y003274D01*
X022502Y003374D01*
X022652Y003324D01*
X022502Y003424D01*
X022752Y003324D01*
X022502Y003474D01*
X022852Y003324D01*
X022952Y003324D02*
X023502Y003074D01*
X023002Y003274D01*
X023502Y003024D01*
X023052Y003224D01*
X023402Y003024D01*
X023102Y003174D01*
X023302Y003024D01*
X023102Y003124D01*
X023202Y003024D01*
X023102Y003024D01*
X023102Y003074D01*
X023202Y003024D01*
X023302Y003024D01*
X023402Y003024D01*
X023502Y003024D01*
X023502Y002974D01*
X023102Y002974D01*
X023102Y003024D01*
X023102Y002974D02*
X023102Y002924D01*
X023502Y002924D01*
X023502Y002624D01*
X023502Y002574D02*
X023502Y002524D01*
X023552Y002574D01*
X023552Y004224D01*
X023602Y004224D01*
X023602Y002624D01*
X023552Y002574D01*
X023502Y002524D02*
X022502Y002524D01*
X022502Y002574D01*
X022502Y002524D02*
X022452Y002574D01*
X022452Y002624D01*
X022452Y002574D02*
X022402Y002624D01*
X022752Y002924D02*
X022752Y002974D01*
X022802Y002974D01*
X022852Y002974D02*
X022850Y002987D01*
X022845Y002999D01*
X022837Y003009D01*
X022827Y003017D01*
X022815Y003022D01*
X022802Y003024D01*
X022789Y003022D01*
X022777Y003017D01*
X022767Y003009D01*
X022759Y002999D01*
X022754Y002987D01*
X022752Y002974D01*
X022752Y002924D02*
X022802Y002924D01*
X022802Y002974D01*
X022852Y002974D01*
X022852Y002924D01*
X022802Y002924D01*
X023102Y003024D02*
X023100Y003058D01*
X023094Y003091D01*
X023085Y003123D01*
X023072Y003154D01*
X023056Y003184D01*
X023037Y003211D01*
X023014Y003236D01*
X022989Y003259D01*
X022962Y003278D01*
X022932Y003294D01*
X022901Y003307D01*
X022869Y003316D01*
X022836Y003322D01*
X022802Y003324D01*
X022768Y003322D01*
X022735Y003316D01*
X022703Y003307D01*
X022672Y003294D01*
X022642Y003278D01*
X022615Y003259D01*
X022590Y003236D01*
X022567Y003211D01*
X022548Y003184D01*
X022532Y003154D01*
X022519Y003123D01*
X022510Y003091D01*
X022504Y003058D01*
X022502Y003024D01*
X022502Y003324D02*
X022502Y003374D01*
X022502Y003424D01*
X022502Y003474D01*
X023502Y003174D01*
X023502Y003124D01*
X022952Y003324D01*
X022977Y003674D02*
X022802Y003724D01*
X022977Y003774D01*
X022977Y003674D01*
X022952Y003724D02*
X022852Y003724D01*
X023202Y003724D02*
X023502Y003624D01*
X023502Y003674D01*
X023202Y003774D01*
X023202Y003824D01*
X023502Y003724D01*
X023502Y003774D01*
X023252Y003824D01*
X023302Y003824D01*
X023502Y003874D01*
X023502Y003824D01*
X023302Y003824D01*
X023202Y003824D02*
X023502Y003924D01*
X023502Y003874D01*
X023502Y003824D02*
X023502Y003774D01*
X023502Y003724D02*
X023502Y003674D01*
X023502Y003624D02*
X023502Y003574D01*
X023202Y003674D01*
X023202Y003724D01*
X023202Y003774D01*
X023202Y003674D02*
X023202Y003624D01*
X023502Y003524D01*
X023502Y003224D01*
X022502Y003524D01*
X022502Y003474D01*
X022502Y003524D02*
X022502Y003574D01*
X023502Y003224D01*
X023502Y003174D01*
X023502Y003124D02*
X023502Y003074D01*
X023502Y003024D01*
X023502Y002974D02*
X023502Y002924D01*
X023502Y003524D02*
X023502Y003574D01*
X023502Y003924D02*
X023502Y004224D01*
X023352Y004174D01*
X023352Y004224D01*
X023352Y004274D01*
X023352Y004324D01*
X022502Y004124D01*
X022552Y004124D01*
X022552Y004224D01*
X022602Y004224D01*
X022602Y004124D01*
X022652Y004124D01*
X022652Y004224D01*
X022702Y004224D01*
X022702Y004274D01*
X022752Y004324D01*
X022802Y004374D01*
X022802Y004174D01*
X022852Y004174D01*
X022852Y004374D01*
X022902Y004374D01*
X022902Y004174D01*
X022952Y004174D01*
X022952Y004374D01*
X023002Y004374D01*
X023002Y004224D01*
X023052Y004224D01*
X023052Y004374D01*
X023102Y004374D01*
X023102Y004274D01*
X023152Y004274D01*
X023152Y004374D01*
X023202Y004374D01*
X023202Y004274D01*
X023252Y004274D01*
X023252Y004374D01*
X023302Y004374D01*
X023302Y004274D01*
X023352Y004274D01*
X022502Y004024D01*
X022502Y004074D01*
X023352Y004324D01*
X023352Y004374D01*
X023402Y004324D01*
X023402Y004224D01*
X023452Y004224D01*
X023302Y004224D01*
X023352Y004224D02*
X022502Y003974D01*
X022502Y004024D01*
X022502Y003974D02*
X022502Y003924D01*
X023502Y004224D01*
X022502Y003874D01*
X022502Y003924D01*
X022502Y003874D02*
X022502Y003574D01*
X022502Y004074D02*
X022502Y004124D01*
X022502Y004224D01*
X022552Y004224D01*
X022602Y004224D02*
X022652Y004224D01*
X022702Y004274D01*
X022702Y004224D02*
X022702Y004174D01*
X022752Y004174D01*
X022752Y004324D01*
X022802Y004374D02*
X022852Y004374D01*
X022902Y004374D02*
X022952Y004374D01*
X023002Y004374D02*
X023052Y004374D01*
X023102Y004374D02*
X023152Y004374D01*
X023202Y004374D02*
X023252Y004374D01*
X023302Y004374D02*
X023352Y004374D01*
X023402Y004324D02*
X023452Y004274D01*
X023452Y004224D01*
X023502Y004224D02*
X023552Y004224D01*
X023502Y004224D02*
X023452Y004274D01*
X022502Y004224D02*
X022452Y004224D01*
X010516Y016229D02*
X010336Y016229D01*
X010426Y016229D02*
X010426Y016500D01*
X010336Y016409D01*
X010221Y016229D02*
X010041Y016229D01*
X010131Y016229D02*
X010131Y016500D01*
X010041Y016409D01*
X009927Y016454D02*
X009882Y016500D01*
X009747Y016500D01*
X009747Y016229D01*
X009882Y016229D01*
X009927Y016274D01*
X009927Y016454D01*
X009516Y016579D02*
X009336Y016579D01*
X009516Y016759D01*
X009516Y016804D01*
X009471Y016850D01*
X009381Y016850D01*
X009336Y016804D01*
X009131Y016850D02*
X009131Y016579D01*
X009041Y016579D02*
X009221Y016579D01*
X009041Y016759D02*
X009131Y016850D01*
X008927Y016804D02*
X008882Y016850D01*
X008747Y016850D01*
X008747Y016579D01*
X008882Y016579D01*
X008927Y016624D01*
X008927Y016804D01*
X008516Y016454D02*
X008516Y016409D01*
X008471Y016364D01*
X008516Y016319D01*
X008516Y016274D01*
X008471Y016229D01*
X008381Y016229D01*
X008336Y016274D01*
X008221Y016229D02*
X008041Y016229D01*
X008131Y016229D02*
X008131Y016500D01*
X008041Y016409D01*
X007927Y016454D02*
X007882Y016500D01*
X007747Y016500D01*
X007747Y016229D01*
X007882Y016229D01*
X007927Y016274D01*
X007927Y016454D01*
X008336Y016454D02*
X008381Y016500D01*
X008471Y016500D01*
X008516Y016454D01*
X008471Y016364D02*
X008426Y016364D01*
X007516Y016624D02*
X007516Y016804D01*
X007471Y016850D01*
X007336Y016850D01*
X007336Y016579D01*
X007471Y016579D01*
X007516Y016624D01*
X007221Y016579D02*
X007221Y016850D01*
X007041Y016850D02*
X007041Y016579D01*
X006927Y016624D02*
X006927Y016714D01*
X006837Y016714D01*
X006927Y016624D02*
X006882Y016579D01*
X006792Y016579D01*
X006747Y016624D01*
X006747Y016804D01*
X006792Y016850D01*
X006882Y016850D01*
X006927Y016804D01*
X007041Y016850D02*
X007221Y016579D01*
X006516Y016500D02*
X006336Y016500D01*
X006336Y016229D01*
X006221Y016229D02*
X006041Y016229D01*
X006041Y016500D01*
X006221Y016500D01*
X006227Y016629D02*
X006227Y016809D01*
X006137Y016900D01*
X006047Y016809D01*
X006047Y016629D01*
X006047Y016764D02*
X006227Y016764D01*
X006131Y016364D02*
X006041Y016364D01*
X005927Y016364D02*
X005882Y016319D01*
X005747Y016319D01*
X005747Y016229D02*
X005747Y016500D01*
X005882Y016500D01*
X005927Y016454D01*
X005927Y016364D01*
X005837Y016319D02*
X005927Y016229D01*
X006336Y016364D02*
X006426Y016364D01*
X010747Y016579D02*
X010882Y016579D01*
X010927Y016624D01*
X010927Y016804D01*
X010882Y016850D01*
X010747Y016850D01*
X010747Y016579D01*
X011041Y016579D02*
X011221Y016579D01*
X011131Y016579D02*
X011131Y016850D01*
X011041Y016759D01*
X011336Y016804D02*
X011336Y016624D01*
X011516Y016804D01*
X011516Y016624D01*
X011471Y016579D01*
X011381Y016579D01*
X011336Y016624D01*
X011336Y016804D02*
X011381Y016850D01*
X011471Y016850D01*
X011516Y016804D01*
X016077Y017224D02*
X016122Y017179D01*
X016077Y017224D02*
X016077Y017314D01*
X016122Y017359D01*
X016167Y017359D01*
X016347Y017179D01*
X016347Y017359D01*
X016347Y017474D02*
X016077Y017474D01*
X016212Y017519D02*
X016347Y017654D01*
X016347Y017769D02*
X016167Y017949D01*
X016122Y017949D01*
X016077Y017904D01*
X016077Y017814D01*
X016122Y017769D01*
X016077Y017654D02*
X016257Y017474D01*
X016347Y017769D02*
X016347Y017949D01*
X017077Y017904D02*
X017122Y017949D01*
X017212Y017949D01*
X017257Y017904D01*
X017257Y017769D01*
X017257Y017859D02*
X017347Y017949D01*
X017347Y017769D02*
X017077Y017769D01*
X017077Y017904D01*
X017122Y017654D02*
X017077Y017609D01*
X017077Y017519D01*
X017122Y017474D01*
X017167Y017474D01*
X017212Y017519D01*
X017212Y017609D01*
X017257Y017654D01*
X017302Y017654D01*
X017347Y017609D01*
X017347Y017519D01*
X017302Y017474D01*
X017257Y017474D01*
X017212Y017519D01*
X017212Y017609D02*
X017167Y017654D01*
X017122Y017654D01*
X017077Y017359D02*
X017122Y017269D01*
X017212Y017179D01*
X017212Y017314D01*
X017257Y017359D01*
X017302Y017359D01*
X017347Y017314D01*
X017347Y017224D01*
X017302Y017179D01*
X017212Y017179D01*
X019077Y017359D02*
X019122Y017269D01*
X019212Y017179D01*
X019212Y017314D01*
X019257Y017359D01*
X019302Y017359D01*
X019347Y017314D01*
X019347Y017224D01*
X019302Y017179D01*
X019212Y017179D01*
X019257Y017474D02*
X019212Y017519D01*
X019212Y017609D01*
X019257Y017654D01*
X019302Y017654D01*
X019347Y017609D01*
X019347Y017519D01*
X019302Y017474D01*
X019257Y017474D01*
X019212Y017519D02*
X019167Y017474D01*
X019122Y017474D01*
X019077Y017519D01*
X019077Y017609D01*
X019122Y017654D01*
X019167Y017654D01*
X019212Y017609D01*
X019257Y017769D02*
X019257Y017904D01*
X019212Y017949D01*
X019122Y017949D01*
X019077Y017904D01*
X019077Y017769D01*
X019347Y017769D01*
X019257Y017859D02*
X019347Y017949D01*
X021077Y017913D02*
X021347Y017913D01*
X021257Y017913D02*
X021077Y018093D01*
X021212Y017958D02*
X021347Y018093D01*
X021302Y017799D02*
X021122Y017799D01*
X021302Y017619D01*
X021347Y017664D01*
X021347Y017754D01*
X021302Y017799D01*
X021302Y017619D02*
X021122Y017619D01*
X021077Y017664D01*
X021077Y017754D01*
X021122Y017799D01*
X021122Y017504D02*
X021302Y017324D01*
X021347Y017369D01*
X021347Y017459D01*
X021302Y017504D01*
X021122Y017504D01*
X021077Y017459D01*
X021077Y017369D01*
X021122Y017324D01*
X021302Y017324D01*
X021347Y017209D02*
X021347Y017029D01*
X021347Y017119D02*
X021077Y017119D01*
X021167Y017029D01*
X002055Y020850D02*
X001875Y020850D01*
X001875Y020579D01*
X001761Y020579D02*
X001761Y020714D01*
X001716Y020759D01*
X001581Y020759D01*
X001581Y020579D01*
X001466Y020624D02*
X001466Y020804D01*
X001286Y020624D01*
X001331Y020579D01*
X001421Y020579D01*
X001466Y020624D01*
X001286Y020624D02*
X001286Y020804D01*
X001331Y020850D01*
X001421Y020850D01*
X001466Y020804D01*
X001171Y020804D02*
X000991Y020624D01*
X001036Y020579D01*
X001126Y020579D01*
X001171Y020624D01*
X001171Y020804D01*
X001126Y020850D01*
X001036Y020850D01*
X000991Y020804D01*
X000991Y020624D01*
X000877Y020579D02*
X000697Y020579D01*
X000787Y020579D02*
X000787Y020850D01*
X000697Y020759D01*
X001875Y020714D02*
X001965Y020714D01*
D13*
X011807Y016670D02*
X011807Y016239D01*
X012022Y016239D01*
X012094Y016311D01*
X012094Y016598D01*
X012022Y016670D01*
X011807Y016670D01*
X012267Y016598D02*
X012267Y016526D01*
X012339Y016454D01*
X012554Y016454D01*
X012554Y016311D02*
X012554Y016598D01*
X012482Y016670D01*
X012339Y016670D01*
X012267Y016598D01*
X012267Y016311D02*
X012339Y016239D01*
X012482Y016239D01*
X012554Y016311D01*
X012807Y016439D02*
X013022Y016439D01*
X013094Y016511D01*
X013094Y016798D01*
X013022Y016870D01*
X012807Y016870D01*
X012807Y016439D01*
X013267Y016511D02*
X013339Y016439D01*
X013482Y016439D01*
X013554Y016511D01*
X013554Y016583D01*
X013482Y016654D01*
X013339Y016654D01*
X013267Y016726D01*
X013267Y016798D01*
X013339Y016870D01*
X013482Y016870D01*
X013554Y016798D01*
X013554Y016726D01*
X013482Y016654D01*
X013339Y016654D02*
X013267Y016583D01*
X013267Y016511D01*
X014357Y016670D02*
X014357Y016239D01*
X014572Y016239D01*
X014644Y016311D01*
X014644Y016598D01*
X014572Y016670D01*
X014357Y016670D01*
X014817Y016670D02*
X015104Y016670D01*
X015104Y016598D01*
X014817Y016311D01*
X014817Y016239D01*
X015357Y016439D02*
X015572Y016439D01*
X015644Y016511D01*
X015644Y016798D01*
X015572Y016870D01*
X015357Y016870D01*
X015357Y016439D01*
X015817Y016511D02*
X015889Y016439D01*
X016032Y016439D01*
X016104Y016511D01*
X016104Y016583D01*
X016032Y016654D01*
X015817Y016654D01*
X015817Y016511D01*
X015817Y016654D02*
X015961Y016798D01*
X016104Y016870D01*
X016357Y016670D02*
X016572Y016670D01*
X016644Y016598D01*
X016644Y016311D01*
X016572Y016239D01*
X016357Y016239D01*
X016357Y016670D01*
X016817Y016670D02*
X016817Y016454D01*
X016961Y016526D01*
X017032Y016526D01*
X017104Y016454D01*
X017104Y016311D01*
X017032Y016239D01*
X016889Y016239D01*
X016817Y016311D01*
X016817Y016670D02*
X017104Y016670D01*
X017357Y016870D02*
X017357Y016439D01*
X017572Y016439D01*
X017644Y016511D01*
X017644Y016798D01*
X017572Y016870D01*
X017357Y016870D01*
X017817Y016654D02*
X018104Y016654D01*
X018032Y016439D02*
X018032Y016870D01*
X017817Y016654D01*
X018357Y016670D02*
X018357Y016239D01*
X018572Y016239D01*
X018644Y016311D01*
X018644Y016598D01*
X018572Y016670D01*
X018357Y016670D01*
X018817Y016598D02*
X018889Y016670D01*
X019032Y016670D01*
X019104Y016598D01*
X019104Y016526D01*
X019032Y016454D01*
X019104Y016383D01*
X019104Y016311D01*
X019032Y016239D01*
X018889Y016239D01*
X018817Y016311D01*
X018961Y016454D02*
X019032Y016454D01*
X019357Y016439D02*
X019357Y016870D01*
X019572Y016870D01*
X019644Y016798D01*
X019644Y016511D01*
X019572Y016439D01*
X019357Y016439D01*
X019817Y016439D02*
X020104Y016726D01*
X020104Y016798D01*
X020032Y016870D01*
X019889Y016870D01*
X019817Y016798D01*
X019817Y016439D02*
X020104Y016439D01*
X020357Y016239D02*
X020357Y016670D01*
X020572Y016670D01*
X020644Y016598D01*
X020644Y016311D01*
X020572Y016239D01*
X020357Y016239D01*
X020817Y016239D02*
X021104Y016239D01*
X020961Y016239D02*
X020961Y016670D01*
X020817Y016526D01*
X021357Y016439D02*
X021572Y016439D01*
X021644Y016511D01*
X021644Y016798D01*
X021572Y016870D01*
X021357Y016870D01*
X021357Y016439D01*
X021817Y016511D02*
X021817Y016798D01*
X021889Y016870D01*
X022032Y016870D01*
X022104Y016798D01*
X021817Y016511D01*
X021889Y016439D01*
X022032Y016439D01*
X022104Y016511D01*
X022104Y016798D01*
X022104Y002870D02*
X021817Y002870D01*
X021817Y002654D01*
X021961Y002726D01*
X022032Y002726D01*
X022104Y002654D01*
X022104Y002511D01*
X022032Y002439D01*
X021889Y002439D01*
X021817Y002511D01*
X021644Y002439D02*
X021644Y002726D01*
X021500Y002870D01*
X021357Y002726D01*
X021357Y002439D01*
X021357Y002654D02*
X021644Y002654D01*
X021104Y002454D02*
X020817Y002454D01*
X021032Y002670D01*
X021032Y002239D01*
X020644Y002239D02*
X020644Y002526D01*
X020500Y002670D01*
X020357Y002526D01*
X020357Y002239D01*
X020357Y002454D02*
X020644Y002454D01*
X020104Y002511D02*
X020032Y002439D01*
X019889Y002439D01*
X019817Y002511D01*
X019644Y002439D02*
X019644Y002726D01*
X019500Y002870D01*
X019357Y002726D01*
X019357Y002439D01*
X019357Y002654D02*
X019644Y002654D01*
X019817Y002798D02*
X019889Y002870D01*
X020032Y002870D01*
X020104Y002798D01*
X020104Y002726D01*
X020032Y002654D01*
X020104Y002583D01*
X020104Y002511D01*
X020032Y002654D02*
X019961Y002654D01*
X019104Y002598D02*
X019104Y002526D01*
X018817Y002239D01*
X019104Y002239D01*
X019104Y002598D02*
X019032Y002670D01*
X018889Y002670D01*
X018817Y002598D01*
X018644Y002526D02*
X018644Y002239D01*
X018644Y002454D02*
X018357Y002454D01*
X018357Y002526D02*
X018500Y002670D01*
X018644Y002526D01*
X018357Y002526D02*
X018357Y002239D01*
X018104Y002439D02*
X017817Y002439D01*
X017961Y002439D02*
X017961Y002870D01*
X017817Y002726D01*
X017644Y002726D02*
X017644Y002439D01*
X017644Y002654D02*
X017357Y002654D01*
X017357Y002726D02*
X017500Y002870D01*
X017644Y002726D01*
X017357Y002726D02*
X017357Y002439D01*
X017104Y002311D02*
X017104Y002598D01*
X016817Y002311D01*
X016889Y002239D01*
X017032Y002239D01*
X017104Y002311D01*
X017104Y002598D02*
X017032Y002670D01*
X016889Y002670D01*
X016817Y002598D01*
X016817Y002311D01*
X016644Y002239D02*
X016644Y002526D01*
X016500Y002670D01*
X016357Y002526D01*
X016357Y002239D01*
X016357Y002454D02*
X016644Y002454D01*
D14*
X014722Y002279D03*
X013722Y002829D03*
X012722Y002279D03*
X011722Y002829D03*
X010722Y002279D03*
X009722Y002829D03*
X009122Y016279D03*
X011122Y016279D03*
X007122Y016279D03*
D15*
X008122Y016104D03*
X010122Y016104D03*
X012122Y016104D03*
X014722Y016104D03*
X016722Y016104D03*
X018722Y016104D03*
X020722Y016104D03*
X021722Y003004D03*
X020722Y002104D03*
X019722Y003004D03*
X018722Y002104D03*
X017722Y003004D03*
X016722Y002104D03*
X014722Y003004D03*
X013722Y002104D03*
X012722Y003004D03*
X011722Y002104D03*
X010722Y003004D03*
X009722Y002104D03*
X006122Y016104D03*
D16*
X013122Y016204D03*
X015722Y016204D03*
X017722Y016204D03*
X019722Y016204D03*
X021722Y016204D03*
X020722Y002904D03*
X021722Y002204D03*
X019722Y002204D03*
X018722Y002904D03*
X017722Y002204D03*
X016722Y002904D03*
D17*
X016722Y018404D03*
X018722Y018404D03*
X020722Y018404D03*
X014722Y018404D03*
X012122Y018404D03*
D18*
X022722Y005484D02*
X000722Y005484D01*
X000722Y004624D02*
X022722Y004624D01*
D19*
X022722Y004654D02*
X022722Y005454D01*
X021722Y005454D02*
X021722Y004654D01*
X020722Y004654D02*
X020722Y005454D01*
X019722Y005454D02*
X019722Y004654D01*
X018722Y004654D02*
X018722Y005454D01*
X017722Y005454D02*
X017722Y004654D01*
X016722Y004654D02*
X016722Y005454D01*
X015722Y005454D02*
X015722Y004654D01*
X014722Y004654D02*
X014722Y005454D01*
X013722Y005454D02*
X013722Y004654D01*
X012722Y004654D02*
X012722Y005454D01*
X011722Y005454D02*
X011722Y004654D01*
X010722Y004654D02*
X010722Y005454D01*
X009722Y005454D02*
X009722Y004654D01*
X008722Y004654D02*
X008722Y005454D01*
X007722Y005454D02*
X007722Y004654D01*
X006722Y004654D02*
X006722Y005454D01*
X005722Y005454D02*
X005722Y004654D01*
X004722Y004654D02*
X004722Y005454D01*
X003722Y005454D02*
X003722Y004654D01*
X002722Y004654D02*
X002722Y005454D01*
X001722Y005454D02*
X001722Y004654D01*
X000722Y004654D02*
X000722Y005454D01*
D20*
X006122Y018504D03*
X007122Y018504D03*
X009122Y018504D03*
X011122Y018504D03*
X013122Y018504D03*
X015722Y018504D03*
X017722Y018504D03*
X019722Y018504D03*
X021722Y018504D03*
D21*
X010122Y018329D03*
X008122Y018329D03*
D22*
X017222Y015554D03*
D23*
X018022Y015004D02*
X016422Y015004D01*
X016322Y015004D01*
X016322Y015104D01*
X016272Y015004D02*
X016272Y016054D01*
X018172Y016054D01*
X018172Y015004D01*
X018022Y015004D01*
X018072Y015004D01*
X018072Y015104D01*
X019272Y015004D02*
X019272Y016054D01*
X020172Y016054D01*
X020172Y015004D01*
X020022Y015004D01*
X020072Y015004D01*
X020072Y015054D01*
X020022Y015004D02*
X019422Y015004D01*
X019372Y015004D01*
X019372Y015054D01*
X019422Y015004D02*
X019272Y015004D01*
X016422Y015004D02*
X016272Y015004D01*
D24*
X016458Y018774D02*
X016458Y018934D01*
X015986Y018934D02*
X015986Y018774D01*
X016986Y018774D02*
X016986Y018934D01*
X017458Y018934D02*
X017458Y018774D01*
X018986Y018774D02*
X018986Y018934D01*
X019458Y018934D02*
X019458Y018774D01*
X020986Y018774D02*
X020986Y018934D01*
X021458Y018934D02*
X021458Y018774D01*
X008958Y001784D02*
X008958Y001624D01*
X008486Y001624D02*
X008486Y001784D01*
X006458Y001784D02*
X006458Y001624D01*
X005986Y001624D02*
X005986Y001784D01*
X004458Y001784D02*
X004458Y001624D01*
X003986Y001624D02*
X003986Y001784D01*
X003152Y020518D02*
X002992Y020518D01*
X002992Y020991D02*
X003152Y020991D01*
D25*
X004122Y020394D02*
X004122Y018614D01*
X005622Y018614D02*
X005622Y020394D01*
X005622Y017094D02*
X005622Y015314D01*
X004122Y015314D02*
X004122Y017094D01*
M02*
