G75*
G70*
%OFA0B0*%
%FSLAX24Y24*%
%IPPOS*%
%LPD*%
%AMOC8*
5,1,8,0,0,1.08239X$1,22.5*
%
%ADD10C,0.0680*%
%ADD11R,0.0680X0.0680*%
%ADD12C,0.0434*%
D10*
X001382Y001524D03*
X003162Y001524D03*
X005222Y003304D03*
X005222Y005054D03*
X006222Y005054D03*
X007222Y005054D03*
X008222Y005054D03*
X009222Y005054D03*
X010222Y005054D03*
X011222Y005054D03*
X012222Y005054D03*
X013222Y005054D03*
X014222Y005054D03*
X015222Y005054D03*
X016222Y005054D03*
X017222Y005054D03*
X018222Y005054D03*
X019222Y005054D03*
X020222Y005054D03*
X021222Y005054D03*
X022222Y005054D03*
X022222Y006054D03*
X021222Y006054D03*
X020222Y006054D03*
X019222Y006054D03*
X018222Y006054D03*
X017222Y006054D03*
X016222Y006054D03*
X015222Y006054D03*
X014222Y006054D03*
X013222Y006054D03*
X012222Y006054D03*
X011222Y006054D03*
X010222Y006054D03*
X009222Y006054D03*
X008222Y006054D03*
X007222Y006054D03*
X006222Y006054D03*
X005222Y006054D03*
X004222Y006054D03*
X004222Y005054D03*
X003222Y005054D03*
X003162Y004084D03*
X001382Y004084D03*
X001222Y005054D03*
X001222Y006054D03*
X002222Y006054D03*
X002222Y007054D03*
X001222Y007054D03*
X001222Y008054D03*
X002222Y008054D03*
X002222Y009054D03*
X001222Y009054D03*
X001222Y010054D03*
X002222Y010054D03*
X002222Y011054D03*
X001222Y011054D03*
X001222Y012054D03*
X002222Y012054D03*
X002222Y013054D03*
X001222Y013054D03*
X001222Y014054D03*
X003222Y014054D03*
X003222Y013054D03*
X003222Y012054D03*
X003222Y011054D03*
X003222Y010054D03*
X003222Y009054D03*
X003222Y008054D03*
X003222Y007054D03*
X003222Y006054D03*
X004222Y007054D03*
X005222Y007054D03*
X006222Y007054D03*
X007222Y007054D03*
X008222Y007054D03*
X009222Y007054D03*
X010222Y007054D03*
X011222Y007054D03*
X012222Y007054D03*
X013222Y007054D03*
X014222Y007054D03*
X015222Y007054D03*
X016222Y007054D03*
X017222Y007054D03*
X018222Y007054D03*
X019222Y007054D03*
X020222Y007054D03*
X021222Y007054D03*
X022222Y007054D03*
X022222Y008054D03*
X021222Y008054D03*
X020222Y008054D03*
X019222Y008054D03*
X018222Y008054D03*
X017222Y008054D03*
X016222Y008054D03*
X015222Y008054D03*
X014222Y008054D03*
X013222Y008054D03*
X012222Y008054D03*
X011222Y008054D03*
X010222Y008054D03*
X009222Y008054D03*
X008222Y008054D03*
X007222Y008054D03*
X006222Y008054D03*
X005222Y008054D03*
X004222Y008054D03*
X004222Y009054D03*
X005222Y009054D03*
X006222Y009054D03*
X007222Y009054D03*
X008222Y009054D03*
X009222Y009054D03*
X010222Y009054D03*
X011222Y009054D03*
X012222Y009054D03*
X013222Y009054D03*
X014222Y009054D03*
X015222Y009054D03*
X016222Y009054D03*
X017222Y009054D03*
X018222Y009054D03*
X019222Y009054D03*
X020222Y009054D03*
X021222Y009054D03*
X022222Y009054D03*
X022222Y010054D03*
X021222Y010054D03*
X020222Y010054D03*
X019222Y010054D03*
X018222Y010054D03*
X017222Y010054D03*
X016222Y010054D03*
X015222Y010054D03*
X014222Y010054D03*
X013222Y010054D03*
X012222Y010054D03*
X011222Y010054D03*
X010222Y010054D03*
X009222Y010054D03*
X008222Y010054D03*
X007222Y010054D03*
X006222Y010054D03*
X005222Y010054D03*
X004222Y010054D03*
X004222Y011054D03*
X005222Y011054D03*
X006222Y011054D03*
X007222Y011054D03*
X008222Y011054D03*
X009222Y011054D03*
X010222Y011054D03*
X011222Y011054D03*
X012222Y011054D03*
X013222Y011054D03*
X014222Y011054D03*
X015222Y011054D03*
X016222Y011054D03*
X017222Y011054D03*
X018222Y011054D03*
X019222Y011054D03*
X020222Y011054D03*
X021222Y011054D03*
X022222Y011054D03*
X022222Y012054D03*
X021222Y012054D03*
X020222Y012054D03*
X019222Y012054D03*
X018222Y012054D03*
X017222Y012054D03*
X016222Y012054D03*
X015222Y012054D03*
X014222Y012054D03*
X013222Y012054D03*
X012222Y012054D03*
X011222Y012054D03*
X010222Y012054D03*
X009222Y012054D03*
X008222Y012054D03*
X007222Y012054D03*
X006222Y012054D03*
X005222Y012054D03*
X004222Y012054D03*
X004222Y013054D03*
X005222Y013054D03*
X006222Y013054D03*
X007222Y013054D03*
X008222Y013054D03*
X009222Y013054D03*
X010222Y013054D03*
X011222Y013054D03*
X012222Y013054D03*
X013222Y013054D03*
X014222Y013054D03*
X015222Y013054D03*
X016222Y013054D03*
X017222Y013054D03*
X018222Y013054D03*
X019222Y013054D03*
X020222Y013054D03*
X021222Y013054D03*
X022222Y013054D03*
X022222Y014054D03*
X021222Y014054D03*
X020222Y014054D03*
X019222Y014054D03*
X018222Y014054D03*
X017222Y014054D03*
X016222Y014054D03*
X015222Y014054D03*
X014222Y014054D03*
X013222Y014054D03*
X012222Y014054D03*
X011222Y014054D03*
X010222Y014054D03*
X009222Y014054D03*
X008222Y014054D03*
X007222Y014054D03*
X006222Y014054D03*
X005222Y014054D03*
X004222Y014054D03*
X006122Y015554D03*
X007122Y015554D03*
X008122Y015554D03*
X009122Y015554D03*
X010122Y015554D03*
X011122Y015554D03*
X012122Y015554D03*
X014722Y015554D03*
X015722Y015554D03*
X016722Y015554D03*
X017722Y015554D03*
X018722Y015554D03*
X019722Y015554D03*
X020722Y015554D03*
X020722Y020554D03*
X019722Y020554D03*
X018722Y020554D03*
X017722Y020554D03*
X016722Y020554D03*
X015722Y020554D03*
X014722Y020554D03*
X012122Y020554D03*
X011122Y020554D03*
X010122Y020554D03*
X009122Y020554D03*
X008122Y020554D03*
X007122Y020554D03*
X006122Y020554D03*
X009722Y003554D03*
X010722Y003554D03*
X011722Y003554D03*
X012722Y003554D03*
X013722Y003554D03*
X014722Y003554D03*
X014722Y001554D03*
X013722Y001554D03*
X012722Y001554D03*
X011722Y001554D03*
X010722Y001554D03*
X009722Y001554D03*
X007222Y003304D03*
X016722Y003554D03*
X017722Y003554D03*
X018722Y003554D03*
X019722Y003554D03*
X020722Y003554D03*
X021722Y003554D03*
X021722Y001554D03*
X020722Y001554D03*
X019722Y001554D03*
X018722Y001554D03*
X017722Y001554D03*
X016722Y001554D03*
D11*
X013122Y015554D03*
X013122Y020554D03*
X021722Y020554D03*
X021722Y015554D03*
X002222Y014054D03*
X002222Y005054D03*
D12*
X002472Y016888D03*
X002472Y018620D03*
M02*
