%
M48
M72
T01C0.0354
T02C0.0400
%
T01
X2472Y16888
X2472Y18620
T02
X1382Y1524
X3162Y1524
X5222Y3304
X5222Y5054
X6222Y5054
X7222Y5054
X8222Y5054
X9222Y5054
X10222Y5054
X11222Y5054
X12222Y5054
X13222Y5054
X14222Y5054
X15222Y5054
X16222Y5054
X17222Y5054
X18222Y5054
X19222Y5054
X20222Y5054
X21222Y5054
X22222Y5054
X22222Y6054
X21222Y6054
X20222Y6054
X19222Y6054
X18222Y6054
X17222Y6054
X16222Y6054
X15222Y6054
X14222Y6054
X13222Y6054
X12222Y6054
X11222Y6054
X10222Y6054
X9222Y6054
X8222Y6054
X7222Y6054
X6222Y6054
X5222Y6054
X4222Y6054
X4222Y5054
X3222Y5054
X3162Y4084
X2222Y5054
X1382Y4084
X1222Y5054
X1222Y6054
X2222Y6054
X2222Y7054
X1222Y7054
X1222Y8054
X2222Y8054
X2222Y9054
X1222Y9054
X1222Y10054
X2222Y10054
X2222Y11054
X1222Y11054
X1222Y12054
X2222Y12054
X2222Y13054
X1222Y13054
X1222Y14054
X2222Y14054
X3222Y14054
X3222Y13054
X3222Y12054
X3222Y11054
X3222Y10054
X3222Y9054
X3222Y8054
X3222Y7054
X3222Y6054
X4222Y7054
X5222Y7054
X6222Y7054
X7222Y7054
X8222Y7054
X9222Y7054
X10222Y7054
X11222Y7054
X12222Y7054
X13222Y7054
X14222Y7054
X15222Y7054
X16222Y7054
X17222Y7054
X18222Y7054
X19222Y7054
X20222Y7054
X21222Y7054
X22222Y7054
X22222Y8054
X21222Y8054
X20222Y8054
X19222Y8054
X18222Y8054
X17222Y8054
X16222Y8054
X15222Y8054
X14222Y8054
X13222Y8054
X12222Y8054
X11222Y8054
X10222Y8054
X9222Y8054
X8222Y8054
X7222Y8054
X6222Y8054
X5222Y8054
X4222Y8054
X4222Y9054
X5222Y9054
X6222Y9054
X7222Y9054
X8222Y9054
X9222Y9054
X10222Y9054
X11222Y9054
X12222Y9054
X13222Y9054
X14222Y9054
X15222Y9054
X16222Y9054
X17222Y9054
X18222Y9054
X19222Y9054
X20222Y9054
X21222Y9054
X22222Y9054
X22222Y10054
X21222Y10054
X20222Y10054
X19222Y10054
X18222Y10054
X17222Y10054
X16222Y10054
X15222Y10054
X14222Y10054
X13222Y10054
X12222Y10054
X11222Y10054
X10222Y10054
X9222Y10054
X8222Y10054
X7222Y10054
X6222Y10054
X5222Y10054
X4222Y10054
X4222Y11054
X5222Y11054
X6222Y11054
X7222Y11054
X8222Y11054
X9222Y11054
X10222Y11054
X11222Y11054
X12222Y11054
X13222Y11054
X14222Y11054
X15222Y11054
X16222Y11054
X17222Y11054
X18222Y11054
X19222Y11054
X20222Y11054
X21222Y11054
X22222Y11054
X22222Y12054
X21222Y12054
X20222Y12054
X19222Y12054
X18222Y12054
X17222Y12054
X16222Y12054
X15222Y12054
X14222Y12054
X13222Y12054
X12222Y12054
X11222Y12054
X10222Y12054
X9222Y12054
X8222Y12054
X7222Y12054
X6222Y12054
X5222Y12054
X4222Y12054
X4222Y13054
X5222Y13054
X6222Y13054
X7222Y13054
X8222Y13054
X9222Y13054
X10222Y13054
X11222Y13054
X12222Y13054
X13222Y13054
X14222Y13054
X15222Y13054
X16222Y13054
X17222Y13054
X18222Y13054
X19222Y13054
X20222Y13054
X21222Y13054
X22222Y13054
X22222Y14054
X21222Y14054
X20222Y14054
X19222Y14054
X18222Y14054
X17222Y14054
X16222Y14054
X15222Y14054
X14222Y14054
X13222Y14054
X12222Y14054
X11222Y14054
X10222Y14054
X9222Y14054
X8222Y14054
X7222Y14054
X6222Y14054
X5222Y14054
X4222Y14054
X6122Y15554
X7122Y15554
X8122Y15554
X9122Y15554
X10122Y15554
X11122Y15554
X12122Y15554
X13122Y15554
X14722Y15554
X15722Y15554
X16722Y15554
X17722Y15554
X18722Y15554
X19722Y15554
X20722Y15554
X21722Y15554
X21722Y20554
X20722Y20554
X19722Y20554
X18722Y20554
X17722Y20554
X16722Y20554
X15722Y20554
X14722Y20554
X13122Y20554
X12122Y20554
X11122Y20554
X10122Y20554
X9122Y20554
X8122Y20554
X7122Y20554
X6122Y20554
X9722Y3554
X10722Y3554
X11722Y3554
X12722Y3554
X13722Y3554
X14722Y3554
X14722Y1554
X13722Y1554
X12722Y1554
X11722Y1554
X10722Y1554
X9722Y1554
X7222Y3304
X16722Y3554
X17722Y3554
X18722Y3554
X19722Y3554
X20722Y3554
X21722Y3554
X21722Y1554
X20722Y1554
X19722Y1554
X18722Y1554
X17722Y1554
X16722Y1554
M30
